<svg version="1.1" id="Layer_1" xmlns="http://www.w3.org/2000/svg" xmlns:xlink="http://www.w3.org/1999/xlink" x="0px" y="0px"
	 width="100%" viewBox="0 0 1536 1024" enable-background="new 0 0 1536 1024" xml:space="preserve">
<path fill="#000000" opacity="1.000000" stroke="none" 
	d="
M854.000000,1025.000000 
	C569.333313,1025.000000 285.166656,1025.000000 1.000000,1025.000000 
	C1.000000,683.666687 1.000000,342.333344 1.000000,1.000000 
	C513.000000,1.000000 1025.000000,1.000000 1537.000000,1.000000 
	C1537.000000,342.333344 1537.000000,683.666687 1537.000000,1025.000000 
	C1309.500000,1025.000000 1082.000000,1025.000000 854.000000,1025.000000 
M1359.376465,458.325623 
	C1359.200806,458.685333 1359.025146,459.045013 1358.186890,459.407715 
	C1354.546265,463.969147 1350.905762,468.530579 1346.899658,473.666840 
	C1346.321777,474.787567 1345.744019,475.908295 1344.883057,477.692535 
	C1343.824951,478.769653 1342.651489,479.757019 1341.729614,480.940216 
	C1338.472900,485.119537 1335.248901,489.327026 1332.131348,493.610321 
	C1331.186890,494.907928 1330.627441,496.485687 1329.978760,497.945679 
	C1329.978760,497.945679 1329.982910,497.858002 1329.199951,497.988770 
	C1327.864746,500.285156 1326.529663,502.581543 1325.020752,505.636597 
	C1323.461426,506.548401 1321.902222,507.460175 1320.199585,508.455780 
	C1320.492920,505.697540 1320.973389,503.280396 1320.974487,500.863068 
	C1321.007935,427.957245 1320.979248,355.051392 1321.021851,282.145599 
	C1321.024658,277.403290 1321.517334,272.661224 1322.111816,267.338867 
	C1322.355347,266.562195 1322.598999,265.785492 1322.966309,264.257751 
	C1322.923828,263.500854 1322.881348,262.743927 1322.977173,261.061493 
	C1322.977173,255.476425 1322.977173,249.891357 1322.977173,244.016830 
	C1296.916870,244.016830 1271.626465,244.024216 1246.336182,244.009186 
	C1242.349976,244.006821 1242.963135,246.843353 1243.022095,249.289520 
	C1243.333740,262.199341 1243.983398,275.109344 1243.941772,288.017426 
	C1243.879150,307.428619 1243.164185,326.837524 1243.079224,346.248932 
	C1243.037354,355.830536 1243.785156,365.415619 1244.036133,375.913239 
	C1244.097046,379.608063 1244.157959,383.302887 1244.063843,387.839813 
	C1244.108032,389.541473 1244.152222,391.243134 1244.039185,393.864044 
	C1244.082031,397.600739 1244.124878,401.337463 1244.017090,405.988373 
	C1244.067017,421.631134 1244.117065,437.273865 1244.034912,453.856232 
	C1244.079102,493.595551 1244.123413,533.334900 1244.016968,573.988342 
	C1244.067017,585.297729 1244.116943,596.607178 1244.035156,608.849487 
	C1244.079346,613.257751 1244.123535,617.665955 1244.017090,622.988342 
	C1244.067017,632.964417 1244.117065,642.940491 1244.034912,653.856201 
	C1244.080688,665.931763 1244.126587,678.007263 1244.055664,690.515198 
	C1244.055664,690.515198 1244.162598,690.950195 1243.994385,691.728333 
	C1243.724854,693.498413 1243.455444,695.268494 1243.038818,697.941284 
	C1243.329468,701.915466 1243.620117,705.889587 1243.994629,710.685852 
	C1244.312012,714.587402 1247.151245,712.567688 1249.945435,712.965515 
	C1272.300415,712.924805 1294.655396,712.884094 1317.790161,712.988403 
	C1323.102173,712.274475 1323.442261,711.527222 1321.972168,703.146118 
	C1321.981445,700.036438 1322.095093,696.922852 1321.976807,693.817993 
	C1321.775513,688.532837 1321.428589,683.253235 1321.019287,677.044739 
	C1321.008423,662.727783 1320.990967,648.410767 1320.988525,634.093811 
	C1320.985840,618.277039 1321.132202,602.458252 1320.903442,586.644836 
	C1320.848755,582.865784 1319.563599,579.104431 1318.844360,575.334961 
	C1319.394531,574.995178 1319.944824,574.655334 1320.494995,574.315491 
	C1321.988770,575.998352 1323.607544,577.588257 1324.943848,579.388062 
	C1326.537964,581.534912 1327.764038,583.958008 1329.388062,586.078796 
	C1330.629517,587.700195 1333.229614,588.868896 1333.513672,590.531372 
	C1334.592896,596.849426 1338.627808,600.958923 1342.617432,605.439819 
	C1345.061401,608.184631 1345.825439,612.370789 1348.087891,615.343445 
	C1352.377808,620.980164 1357.655762,625.892456 1361.707642,631.676941 
	C1369.190674,642.359436 1375.291504,654.100769 1383.488892,664.162048 
	C1389.513184,671.556274 1394.153564,679.798584 1400.099365,687.155151 
	C1401.691040,689.124390 1403.080933,691.255493 1404.634399,693.257324 
	C1408.364136,698.063293 1413.189331,702.362976 1415.610840,707.748962 
	C1418.341553,713.823120 1421.788818,716.063416 1428.918213,714.975586 
	C1454.973267,714.987183 1481.028442,715.005615 1507.083496,715.002380 
	C1510.715820,715.001892 1514.348145,714.894226 1518.796875,714.980835 
	C1519.841187,714.478577 1521.797119,713.922974 1521.771362,713.483276 
	C1521.662476,711.624084 1521.331055,709.576294 1520.385010,708.020691 
	C1519.289917,706.219971 1517.242065,705.022522 1515.996826,703.284546 
	C1511.809570,697.440613 1508.015015,691.305359 1503.662231,685.592407 
	C1497.518677,677.529053 1490.909912,669.821716 1484.691162,661.813721 
	C1479.652344,655.325012 1474.825073,648.667725 1470.029907,641.994690 
	C1462.593994,631.646667 1455.322754,621.179749 1447.831421,610.872559 
	C1446.651733,609.249451 1444.237061,608.491394 1443.154907,606.835693 
	C1439.342651,601.003174 1436.191650,594.720886 1432.177002,589.042358 
	C1426.361572,580.816772 1419.875366,573.068481 1413.930664,564.929932 
	C1408.315552,557.242737 1403.277710,549.125732 1397.503052,541.566711 
	C1394.291748,537.362976 1396.157104,534.125305 1398.457397,531.077087 
	C1402.389771,525.866211 1406.929443,521.118530 1410.996704,516.003296 
	C1416.595703,508.961761 1421.902100,501.687805 1427.498901,494.644531 
	C1434.069946,486.375275 1440.919312,478.326569 1447.459839,470.033966 
	C1453.668335,462.162384 1459.672119,454.127777 1465.689331,446.107391 
	C1468.363647,442.542694 1470.734741,438.748383 1473.449829,435.216858 
	C1476.870117,430.768066 1480.501343,426.481445 1484.783447,421.951141 
	C1487.474854,418.760529 1490.253174,415.637543 1492.814575,412.345856 
	C1493.834473,411.035156 1494.374878,409.351379 1495.546509,407.755341 
	C1495.791016,407.579712 1495.935547,407.342865 1496.022217,407.050232 
	C1496.022217,407.050232 1496.039185,407.011047 1496.565796,406.935669 
	C1496.660522,406.630402 1496.755249,406.325134 1497.075806,405.370270 
	C1499.371094,402.619904 1501.666504,399.869537 1504.463745,396.827667 
	C1504.666260,396.506714 1504.868774,396.185760 1505.650757,395.515930 
	C1506.489502,392.753571 1510.800659,390.263641 1507.183350,387.179688 
	C1504.791870,385.140778 1501.867432,383.081207 1497.953003,384.839478 
	C1495.812256,385.801117 1493.171265,385.941925 1490.754150,385.949921 
	C1467.007202,386.028473 1443.259766,386.055969 1419.513062,385.948578 
	C1415.698120,385.931335 1413.082886,387.376190 1410.902832,390.354431 
	C1406.962402,395.737427 1402.811646,400.965759 1398.836670,406.323975 
	C1393.974487,412.877960 1389.271973,419.550934 1384.370850,426.075165 
	C1380.331909,431.451904 1376.036865,436.635834 1371.979492,441.999329 
	C1368.227661,446.959015 1364.640869,452.043488 1360.496826,457.149719 
	C1360.175903,457.335205 1360.034790,457.612335 1359.939575,457.989868 
	C1359.939575,457.989868 1359.942383,458.123993 1359.376465,458.325623 
M254.978104,448.953888 
	C254.978104,448.953888 254.961197,448.991730 254.372375,449.104645 
	C253.969162,449.745850 253.565948,450.387085 253.010986,451.445129 
	C253.010986,451.445129 252.994125,451.888397 252.389130,452.340332 
	C252.318558,453.570160 252.247986,454.799957 252.027969,456.680359 
	C251.683853,457.475220 251.339752,458.270081 250.307587,459.476379 
	C249.591827,463.324371 248.876068,467.172363 248.022583,471.946106 
	C248.070602,492.963287 248.118622,513.980469 248.009232,535.740479 
	C248.061707,536.494202 248.114182,537.247864 248.033615,538.931030 
	C248.026993,563.754578 248.504440,588.592102 247.790329,613.395325 
	C247.477417,624.263489 248.876785,634.809265 252.468140,644.579285 
	C255.997131,654.179565 261.696381,663.225647 267.734039,671.582275 
	C272.448944,678.108093 278.976318,683.386536 285.014435,688.871216 
	C288.734558,692.250427 292.760498,695.514709 297.163422,697.868591 
	C303.807434,701.420410 310.896240,704.141968 317.804138,707.197998 
	C326.075500,710.857178 334.746796,712.952209 343.780548,712.959351 
	C422.749390,713.021729 501.718353,713.001160 580.687256,713.008118 
	C725.130188,713.020935 869.573059,713.035828 1014.352600,713.632263 
	C1015.557495,714.120117 1016.762451,714.607971 1017.989990,715.028992 
	C1017.989990,715.028992 1017.921143,715.044617 1017.990662,715.785706 
	C1018.062195,716.277527 1017.950684,716.950928 1018.232056,717.234680 
	C1025.453125,724.516113 1032.733521,731.738708 1039.964966,739.009827 
	C1047.356201,746.441589 1054.889771,753.744141 1062.011108,761.427551 
	C1066.849731,766.647888 1071.105225,772.410950 1075.582397,777.962830 
	C1077.899658,780.836243 1084.045410,780.905457 1085.975098,777.117065 
	C1085.924438,774.072144 1085.873779,771.027283 1085.967896,767.102173 
	C1085.685547,764.050842 1085.403198,760.999451 1085.029663,757.123108 
	C1085.299316,754.739136 1085.568970,752.355103 1085.972778,749.046814 
	C1085.981934,683.361877 1085.993896,617.677002 1085.993042,551.992065 
	C1085.993042,548.004395 1085.892334,544.016724 1085.992920,539.099365 
	C1085.092651,512.502563 1089.200439,485.527649 1079.983032,459.558746 
	C1078.302490,454.824249 1077.145020,449.816284 1074.826050,445.419952 
	C1072.292725,440.617523 1068.550659,436.469360 1065.581299,431.877014 
	C1057.788452,419.824615 1047.651245,410.161133 1035.240356,403.150024 
	C1028.169800,399.155762 1020.543457,396.071075 1012.979370,393.046906 
	C1006.329529,390.388306 999.544128,387.826447 992.585449,386.253571 
	C986.108582,384.789551 979.337585,384.317017 972.671753,384.072754 
	C963.177368,383.724915 953.657471,383.829712 944.154358,384.026581 
	C934.074463,384.235382 924.001465,384.777985 913.010071,385.029266 
	C899.662048,384.998291 886.314087,384.967346 872.979309,385.020721 
	C872.979309,385.020721 873.064087,385.010864 872.617676,384.255981 
	C871.960327,384.172302 871.302917,384.015564 870.645569,384.015350 
	C829.160156,384.002289 787.674683,383.995972 746.189331,384.034088 
	C745.131775,384.035065 744.074768,384.536621 742.154419,384.963776 
	C738.430420,384.910889 734.706421,384.858002 730.455261,384.143982 
	C718.129211,384.097382 705.803162,384.030792 693.477173,384.047882 
	C692.629578,384.049042 691.782959,384.675262 691.020630,385.020691 
	C691.020630,385.020691 691.033875,384.936340 690.092346,384.989227 
	C619.612976,384.992828 549.133606,384.989929 478.654266,385.034821 
	C476.770996,385.036041 474.888092,385.554657 472.077423,385.980255 
	C447.052155,385.932220 422.026917,385.884186 396.490143,385.154297 
	C384.372620,385.103027 372.255066,385.030884 360.137573,385.037262 
	C359.092346,385.037811 358.047363,385.557373 356.074860,385.981384 
	C349.439606,386.011017 342.571503,384.960938 336.225067,386.329712 
	C327.266968,388.261749 318.750885,392.164917 309.941132,394.886292 
	C301.786804,397.405151 294.919922,401.860443 288.737976,407.579529 
	C283.437531,412.483093 278.098785,417.345306 272.408783,422.281830 
	C272.185699,422.445312 272.085327,422.665100 271.985229,422.928741 
	C271.985229,422.928741 271.965332,423.050232 271.265961,423.071411 
	C270.468506,424.367310 269.671021,425.663208 268.455353,427.023407 
	C268.455353,427.023407 268.060699,427.176056 267.347168,427.265106 
	C266.621979,428.847778 265.896790,430.430420 264.871277,432.656891 
	C262.596069,436.060028 260.320862,439.463165 257.446136,443.276123 
	C256.981140,444.835571 256.516144,446.395050 255.921036,447.970398 
	C255.921036,447.970398 255.927795,448.101318 255.492203,448.215637 
	C255.227005,448.395264 255.069305,448.643280 254.978104,448.953888 
M50.025623,707.703674 
	C50.534718,711.141296 52.439362,712.956238 56.623356,713.117737 
	C59.570637,713.407715 62.514446,713.895264 65.465912,713.947144 
	C71.956657,714.061218 78.453018,713.856201 84.943733,713.971008 
	C89.865280,714.058044 94.779617,714.584656 99.700775,714.652161 
	C106.411461,714.744385 113.158180,714.164185 119.827103,714.679260 
	C124.488663,715.039307 130.863266,711.090027 130.959290,706.389160 
	C131.081451,700.408813 130.884094,694.421997 131.019104,687.647644 
	C130.386841,679.465271 129.754578,671.282837 129.018356,662.251160 
	C128.946213,660.829529 128.874054,659.407959 128.957642,657.502502 
	C128.919678,657.337341 128.881714,657.172241 128.984787,656.217102 
	C128.929611,655.151489 128.874420,654.085876 128.972778,652.276550 
	C128.928421,651.521790 128.884064,650.766968 128.980484,649.337341 
	C128.929855,648.882812 128.879211,648.428345 128.959167,647.193298 
	C128.907700,646.143738 128.856232,645.094116 128.943237,643.111267 
	C128.896332,637.062195 128.849426,631.013184 128.955750,624.501953 
	C128.955750,624.501953 128.842804,624.028320 128.981659,623.172852 
	C128.931503,621.443665 128.881332,619.714539 128.971176,617.115967 
	C131.917801,597.066223 130.767929,577.026184 128.972946,556.062134 
	C128.985641,546.662476 129.024063,537.262756 129.005905,527.863159 
	C128.963440,505.900116 128.893784,483.937134 128.963867,461.330780 
	C128.919861,460.897858 128.875854,460.464935 128.977478,459.296356 
	C129.022095,458.549194 129.066711,457.802002 129.900787,456.897430 
	C131.752747,456.263458 133.601074,455.091003 135.457260,455.078461 
	C155.087830,454.945770 174.719666,454.997864 194.351151,454.998962 
	C196.120392,454.999084 197.889648,454.998962 199.680847,454.998962 
	C199.680847,430.391083 199.680847,406.368713 199.680847,381.981964 
	C196.902054,381.981964 194.433014,381.980927 191.963974,381.982178 
	C172.998322,381.991943 154.032684,382.010254 135.067032,382.005005 
	C131.518677,382.004028 128.744766,379.081360 128.995682,375.662201 
	C129.327652,371.138397 129.695145,366.617188 130.530472,361.929138 
	C130.632111,361.636047 130.733749,361.342926 130.989166,360.363007 
	C130.937927,359.899414 130.886688,359.435822 130.967682,358.048065 
	C130.936295,348.973846 130.904907,339.899597 130.971558,330.085785 
	C130.923660,329.337219 130.875778,328.588684 130.966705,326.932251 
	C130.920227,315.005280 130.873749,303.078339 130.963120,290.230194 
	C130.921097,287.477539 130.879059,284.724884 130.992065,281.144836 
	C130.322311,279.100983 129.652573,277.057129 128.999634,275.000610 
	C128.999634,275.000610 128.984985,275.016937 128.730179,274.300659 
	C127.312813,273.540985 125.919167,272.183289 124.473946,272.126007 
	C118.491364,271.888824 112.490974,271.945740 106.501198,272.078369 
	C95.911118,272.312866 85.262070,273.513245 74.755211,272.730988 
	C66.321953,272.103088 58.238987,271.387146 50.025867,274.966492 
	C50.025867,276.055695 50.025459,277.203308 50.025925,278.350952 
	C50.038830,310.140045 50.024830,341.929230 50.083954,373.718231 
	C50.098579,381.581848 49.801552,382.121124 41.659054,381.949524 
	C31.908577,381.744080 22.159666,381.348907 12.418376,380.867798 
	C6.958360,380.598175 4.984337,382.238770 4.984259,387.632111 
	C4.983964,407.945404 5.139302,428.260712 4.872432,448.570496 
	C4.807818,453.487885 5.919333,455.371063 11.168399,455.115784 
	C19.972189,454.687683 28.811935,454.998993 37.636551,454.999115 
	C41.720169,454.999146 45.803787,454.999084 50.006920,454.999084 
	C50.006920,463.197388 49.995220,470.670563 50.008942,478.143646 
	C50.069454,511.098816 50.137291,544.054016 50.059494,577.874451 
	C50.118481,579.920959 50.177467,581.967529 50.143284,584.673157 
	C50.173779,585.114746 50.204269,585.556335 50.026413,586.914795 
	C50.023682,600.374023 49.993092,613.833313 50.024208,627.292480 
	C50.083355,652.876831 50.177799,678.461060 50.138783,704.769470 
	C50.171204,705.503845 50.203625,706.238281 50.025623,707.703674 
M1197.207520,244.745911 
	C1195.624756,244.499985 1194.042603,244.046524 1192.458984,244.040482 
	C1177.802368,243.984604 1163.145508,244.005661 1148.488647,244.004913 
	C1138.852661,244.004410 1129.216553,244.004822 1119.091553,244.004822 
	C1119.091553,400.453461 1119.091553,556.501038 1119.091553,712.837524 
	C1144.435669,712.837524 1169.209106,712.837524 1194.642578,712.983826 
	C1195.088989,712.941345 1195.535522,712.898865 1196.681274,712.939026 
	C1197.048218,712.018555 1197.415283,711.098083 1198.027344,709.508423 
	C1197.691406,706.505554 1197.047119,703.499207 1197.080811,700.500488 
	C1197.161743,693.306885 1197.561157,686.116821 1197.982910,678.011353 
	C1197.989868,633.504578 1197.998901,588.997864 1197.993042,544.491089 
	C1197.992920,543.337891 1197.831787,542.184753 1197.880981,540.098206 
	C1197.864746,511.707306 1197.848511,483.316406 1197.982910,454.011383 
	C1197.932983,435.702148 1197.882935,417.392883 1197.964844,398.143982 
	C1197.919800,371.051666 1197.874756,343.959381 1197.971802,315.959839 
	C1197.927490,304.942932 1197.883179,293.926025 1197.992310,281.994293 
	C1197.940063,273.988708 1197.887939,265.983154 1197.974121,257.237427 
	C1198.256470,255.831451 1198.538818,254.425476 1198.961914,252.164551 
	C1198.623535,249.835251 1198.285156,247.505936 1197.207520,244.745911 
z"/>
<path fill="#6764FA" opacity="1.000000" stroke="none" 
	d="
M248.166656,538.001587 
	C248.114182,537.247864 248.061707,536.494202 248.445465,535.220398 
	C249.246887,533.004211 249.916901,531.310242 249.928741,529.611633 
	C250.018677,516.724304 249.827194,503.833130 250.071518,490.949738 
	C250.147385,486.949036 251.296265,482.968628 251.962585,478.529663 
	C252.638123,473.058014 253.305008,468.035645 254.058395,462.671722 
	C255.750458,458.407227 256.926208,454.232117 259.049500,450.612946 
	C263.722046,442.648590 268.114838,434.330261 273.994659,427.305573 
	C284.589325,414.648071 297.405334,404.576019 312.716583,397.714783 
	C325.337830,392.058990 338.629364,388.265167 352.114624,388.243652 
	C559.715942,387.912415 767.317993,387.994751 974.919800,388.115051 
	C980.936523,388.118530 987.078003,389.076233 992.935059,390.512054 
	C999.394470,392.095581 1005.515076,395.010742 1011.919739,396.878113 
	C1027.500488,401.420959 1040.600586,410.136108 1051.535400,421.693634 
	C1058.275146,428.817169 1063.607300,437.331909 1069.158813,445.502319 
	C1073.992432,452.615997 1076.670166,460.699005 1078.117554,469.193939 
	C1079.322632,476.268402 1081.816895,483.310059 1081.836182,490.371429 
	C1082.089722,583.175110 1082.011719,675.979675 1081.962036,768.784058 
	C1081.960938,770.894165 1081.321045,773.003967 1080.713989,774.911560 
	C1078.956421,773.391174 1077.463989,772.073181 1075.817871,770.454956 
	C1074.668701,768.655273 1073.889526,766.940857 1072.644775,765.689758 
	C1061.070435,754.056763 1049.452148,742.466980 1037.767578,730.944702 
	C1032.952637,726.196472 1027.945435,721.643311 1022.962891,716.652710 
	C1020.947144,711.801758 1017.348633,710.923950 1012.752197,710.925659 
	C800.365173,711.005066 587.978210,711.031677 375.591278,710.888367 
	C364.755493,710.881104 353.969269,711.535461 342.970734,709.462280 
	C333.626923,707.701050 324.642181,705.972290 315.701904,702.440918 
	C302.527222,697.237061 291.082306,689.911011 281.354736,679.796570 
	C276.904022,675.168823 272.327057,670.539307 268.651581,665.316467 
	C262.303192,656.295471 256.986847,646.575562 254.600479,635.673767 
	C252.716232,627.065735 250.441620,618.342224 250.191635,609.616943 
	C249.562225,587.646606 250.023666,565.645996 249.898666,543.658386 
	C249.887924,541.769592 248.770172,539.887024 248.166656,538.001587 
M1004.129028,610.242188 
	C1004.743164,605.655151 1005.988831,601.051941 1005.871521,596.483704 
	C1004.950745,560.642456 1008.277344,524.725769 1003.972168,488.180481 
	C1003.369080,486.669067 1002.470825,485.206573 1002.210632,483.638306 
	C1000.477478,473.190735 992.620789,467.601929 984.892883,462.107910 
	C982.444031,460.366913 979.017029,460.001770 975.626404,458.377716 
	C971.067993,457.252228 966.510376,455.145966 961.951050,455.142273 
	C763.303894,454.981842 564.656555,455.007507 365.206116,455.003174 
	C362.147430,455.996582 359.088745,456.990021 355.507568,457.983948 
	C355.333405,457.985992 355.159271,457.988007 354.220795,458.024933 
	C345.659668,460.442413 338.534119,464.876495 334.233795,472.916931 
	C331.463806,478.096130 328.944763,483.418610 326.535858,488.776978 
	C325.687469,490.664093 325.080109,492.847839 325.075165,494.897888 
	C324.988586,530.626465 325.005127,566.355347 325.030579,602.084167 
	C325.032288,604.477966 324.362701,607.326111 327.971954,608.755127 
	C327.987701,609.486816 328.003418,610.218506 328.012634,611.747009 
	C331.015442,623.285950 336.814972,632.866211 347.966980,638.043762 
	C353.398651,640.565491 359.318329,642.036072 365.006927,643.994934 
	C365.006927,643.994934 365.017914,643.983887 365.248932,644.704895 
	C369.215179,645.465820 373.178650,646.870422 377.148132,646.887817 
	C415.249756,647.054810 453.352386,646.987793 491.454742,646.987793 
	C551.855835,646.987793 612.256958,646.987793 672.658081,646.987793 
	C729.062195,646.987793 785.466248,646.987793 841.870361,646.987793 
	C870.016296,646.987793 898.162292,647.027954 926.308105,646.969788 
	C939.244446,646.943054 952.182800,646.814148 965.113586,646.478333 
	C966.758789,646.435608 968.364075,644.854065 970.737427,643.960938 
	C973.183655,642.972900 975.629883,641.984924 978.819336,640.969360 
	C988.299316,637.827393 994.719788,630.986328 999.692505,622.820984 
	C1001.824951,619.319397 1002.611389,614.998047 1004.129028,610.242188 
z"/>
<path fill="#6764FA" opacity="1.000000" stroke="none" 
	d="
M1244.167725,573.074219 
	C1244.123413,533.334900 1244.079102,493.595551 1244.324463,453.087585 
	C1244.691895,437.005585 1244.775513,421.692291 1244.819214,406.378876 
	C1244.820435,405.944611 1244.394409,405.509094 1244.167725,405.074158 
	C1244.124878,401.337463 1244.082031,397.600739 1244.467285,393.555237 
	C1245.465698,396.013306 1246.036133,398.780151 1246.606445,401.547028 
	C1246.995117,399.750885 1246.994995,397.950562 1246.995239,396.150238 
	C1246.997925,358.552032 1247.000244,320.953827 1247.004761,283.355621 
	C1247.005249,279.590149 1247.018921,275.824646 1247.023193,271.584412 
	C1247.032349,263.070160 1247.044800,255.030624 1247.434448,246.821045 
	C1248.283203,246.490723 1248.754150,246.191574 1249.226318,246.190109 
	C1271.353271,246.121490 1293.480713,246.023651 1315.606201,246.191849 
	C1316.740479,246.200470 1318.717041,248.444748 1318.827881,249.771286 
	C1319.228394,254.563919 1318.808716,259.422119 1319.134033,264.226074 
	C1319.221069,265.510956 1320.857056,266.690948 1321.782104,267.919067 
	C1321.517334,272.661224 1321.024658,277.403290 1321.021851,282.145599 
	C1320.979248,355.051392 1321.007935,427.957245 1320.974487,500.863068 
	C1320.973389,503.280396 1320.492920,505.697540 1320.199585,508.455780 
	C1321.902222,507.460175 1323.461426,506.548401 1325.387085,505.084045 
	C1327.163208,502.307007 1328.573120,500.082520 1329.982910,497.858032 
	C1329.982910,497.858002 1329.978760,497.945679 1330.285645,497.906555 
	C1331.675171,497.129761 1333.034302,496.606293 1333.797974,495.621216 
	C1341.266602,485.987152 1348.555908,476.213562 1356.060791,466.608246 
	C1361.310791,459.888977 1366.867310,453.410156 1372.195923,446.751099 
	C1379.723022,437.344971 1387.197266,427.896118 1394.629395,418.414703 
	C1397.555298,414.681915 1400.235962,410.756989 1403.154785,407.018280 
	C1407.004028,402.087860 1411.444214,397.544830 1414.724487,392.271698 
	C1416.720703,389.062531 1418.732666,387.959351 1422.239258,387.970154 
	C1448.399902,388.050568 1474.561035,388.005280 1500.721924,388.040436 
	C1502.382812,388.042664 1504.043213,388.388794 1506.169067,388.627106 
	C1499.001587,397.790619 1492.587280,406.372803 1485.706055,414.562653 
	C1483.572144,417.102203 1482.898315,419.223053 1484.041626,422.124817 
	C1480.501343,426.481445 1476.870117,430.768066 1473.449829,435.216858 
	C1470.734741,438.748383 1468.363647,442.542694 1465.689331,446.107391 
	C1459.672119,454.127777 1453.668335,462.162384 1447.459839,470.033966 
	C1440.919312,478.326569 1434.069946,486.375275 1427.498901,494.644531 
	C1421.902100,501.687805 1416.595703,508.961761 1410.996704,516.003296 
	C1406.929443,521.118530 1402.389771,525.866211 1398.457397,531.077087 
	C1396.157104,534.125305 1394.291748,537.362976 1397.503052,541.566711 
	C1403.277710,549.125732 1408.315552,557.242737 1413.930664,564.929932 
	C1419.875366,573.068481 1426.361572,580.816772 1432.177002,589.042358 
	C1436.191650,594.720886 1439.342651,601.003174 1443.154907,606.835693 
	C1444.237061,608.491394 1446.651733,609.249451 1447.831421,610.872559 
	C1455.322754,621.179749 1462.593994,631.646667 1470.029907,641.994690 
	C1474.825073,648.667725 1479.652344,655.325012 1484.691162,661.813721 
	C1490.909912,669.821716 1497.518677,677.529053 1503.662231,685.592407 
	C1508.015015,691.305359 1511.809570,697.440613 1515.996826,703.284546 
	C1517.242065,705.022522 1519.289917,706.219971 1520.385010,708.020691 
	C1521.331055,709.576294 1521.662476,711.624084 1521.771362,713.483276 
	C1521.797119,713.922974 1519.841187,714.478577 1518.247559,714.547363 
	C1516.324707,713.742981 1514.951660,713.051819 1513.577148,713.048645 
	C1486.591919,712.985291 1459.606567,712.971558 1432.621704,713.080688 
	C1431.073853,713.086975 1429.530884,714.228943 1427.985596,714.842346 
	C1421.788818,716.063416 1418.341553,713.823120 1415.610840,707.748962 
	C1413.189331,702.362976 1408.364136,698.063293 1404.634399,693.257324 
	C1403.080933,691.255493 1401.691040,689.124390 1400.099365,687.155151 
	C1394.153564,679.798584 1389.513184,671.556274 1383.488892,664.162048 
	C1375.291504,654.100769 1369.190674,642.359436 1361.707642,631.676941 
	C1357.655762,625.892456 1352.377808,620.980164 1348.087891,615.343445 
	C1345.825439,612.370789 1345.061401,608.184631 1342.617432,605.439819 
	C1338.627808,600.958923 1334.592896,596.849426 1333.513672,590.531372 
	C1333.229614,588.868896 1330.629517,587.700195 1329.388062,586.078796 
	C1327.764038,583.958008 1326.537964,581.534912 1324.943848,579.388062 
	C1323.607544,577.588257 1321.988770,575.998352 1320.494995,574.315491 
	C1319.944824,574.655334 1319.394531,574.995178 1318.844360,575.334961 
	C1319.563599,579.104431 1320.848755,582.865784 1320.903442,586.644836 
	C1321.132202,602.458252 1320.985840,618.277039 1320.988525,634.093811 
	C1320.990967,648.410767 1321.008423,662.727783 1321.019287,677.973633 
	C1321.006470,681.729309 1320.893433,684.559998 1321.001953,687.382202 
	C1321.215942,692.954041 1321.552856,698.521118 1321.838989,704.090210 
	C1323.442261,711.527222 1323.102173,712.274475 1317.258057,712.552063 
	C1315.518555,711.747437 1314.312256,711.062012 1313.103760,711.058044 
	C1293.119751,710.991760 1273.135132,710.975403 1253.151611,711.089478 
	C1251.771240,711.097290 1250.397095,712.221313 1249.020142,712.826233 
	C1247.151245,712.567688 1244.312012,714.587402 1244.369141,710.288635 
	C1245.451538,709.345520 1246.753906,708.820251 1246.773682,708.250305 
	C1246.938721,703.506531 1246.867432,698.754578 1246.867432,693.846863 
	C1245.293213,695.211609 1244.239624,696.125061 1243.186035,697.038574 
	C1243.455444,695.268494 1243.724854,693.498413 1244.181152,691.246338 
	C1244.516968,690.495239 1244.451782,690.268127 1244.172363,690.082825 
	C1244.126587,678.007263 1244.080688,665.931763 1244.327637,653.084900 
	C1246.579834,642.202209 1247.108765,632.112244 1244.167725,622.074219 
	C1244.123535,617.665955 1244.079346,613.257751 1244.333496,608.050781 
	C1244.756104,599.785706 1244.993408,592.318726 1244.958740,584.853088 
	C1244.940430,580.925659 1244.446777,577.000427 1244.167725,573.074219 
M1246.967163,682.946472 
	C1246.890137,681.758240 1246.812988,680.570007 1246.735840,679.381836 
	C1246.490112,679.397034 1246.244263,679.412231 1245.998413,679.427490 
	C1246.116699,681.099609 1246.234863,682.771667 1246.353027,684.443726 
	C1246.532593,684.311768 1246.745605,684.206482 1246.879883,684.038330 
	C1246.964722,683.932129 1246.932007,683.731995 1246.967163,682.946472 
M1246.462891,689.493896 
	C1246.462891,689.493896 1246.514648,689.469727 1246.462891,689.493896 
z"/>
<path fill="#6764FA" opacity="1.000000" stroke="none" 
	d="
M128.801910,657.986328 
	C128.874054,659.407959 128.946213,660.829529 129.026535,663.064636 
	C128.935440,664.931274 128.836182,665.984375 128.458313,666.880737 
	C123.781296,667.556824 126.929680,670.985840 126.013702,673.484375 
	C126.011635,674.117798 126.010902,674.283875 126.009750,674.449951 
	C125.931671,685.686218 125.953949,696.925598 125.601143,708.153198 
	C125.570061,709.142395 123.091393,710.871887 121.740707,710.880493 
	C99.820580,711.021362 77.899025,710.939453 55.955978,710.616211 
	C55.915672,710.130310 55.897182,709.936218 55.869987,709.300415 
	C55.842663,652.991455 55.824051,597.124268 55.859787,540.774963 
	C55.945522,512.813599 55.925529,485.333984 56.069904,457.855255 
	C56.089092,454.203369 54.974743,452.864838 51.223423,452.924652 
	C39.568150,453.110413 27.904285,452.827789 16.252110,453.093445 
	C12.831997,453.171417 11.011508,452.022614 10.021355,448.621552 
	C10.022673,447.501984 10.028172,446.755615 10.280693,445.676453 
	C10.680973,443.541779 10.963595,441.740265 10.967299,439.938141 
	C11.001040,423.518860 10.983393,407.099487 10.986920,390.680145 
	C10.988355,384.008270 10.995258,384.003845 17.892616,384.001038 
	C27.512030,383.997131 37.131882,384.047485 46.750462,383.957977 
	C48.498402,383.941711 50.241142,383.366516 52.398125,383.040344 
	C56.164574,383.122009 55.844997,380.706573 55.847580,378.543793 
	C55.860260,367.919769 55.896229,357.295593 55.855938,346.671753 
	C55.766579,323.112610 55.636578,299.553619 55.873932,276.004822 
	C57.160431,276.000641 58.096153,275.986176 59.465191,275.976196 
	C61.923611,275.979553 63.948708,275.978394 66.443977,275.989258 
	C77.322960,275.672363 87.731766,275.343445 98.439987,275.279785 
	C105.865387,275.687988 113.000175,276.103851 120.114189,275.874756 
	C124.615440,275.729828 126.107658,277.006775 126.076836,281.707489 
	C125.888313,310.457489 126.013725,339.209473 126.020416,368.429932 
	C126.002647,372.226685 125.991554,375.554352 125.996902,378.881989 
	C126.007004,385.162201 126.817169,385.975800 133.306900,385.981384 
	C152.773804,385.998108 172.240738,385.978729 191.707642,385.995972 
	C198.149536,386.001678 198.988953,386.817261 198.996719,393.130066 
	C199.018204,410.600342 199.019440,428.070709 198.997879,445.540985 
	C198.990051,451.885681 197.841675,452.984802 191.312698,452.988861 
	C171.679398,453.001099 152.046112,452.985016 132.412827,453.004974 
	C130.927231,453.006470 129.267578,452.838837 128.015396,453.435333 
	C127.127579,453.858246 126.790314,455.436951 126.207291,456.499756 
	C127.175301,456.684784 128.143311,456.869812 129.111313,457.054840 
	C129.066711,457.802002 129.022095,458.549194 128.596680,459.671265 
	C127.696938,460.466064 127.177994,460.885925 126.659058,461.305786 
	C127.384415,461.528564 128.109772,461.751343 128.835144,461.974121 
	C128.893784,483.937134 128.963440,505.900116 129.005905,527.863159 
	C129.024063,537.262756 128.985641,546.662476 128.698242,556.259949 
	C127.998421,555.533813 127.573318,554.609863 126.924950,553.200684 
	C126.462143,554.229736 126.107849,554.650696 126.106758,555.072571 
	C126.055038,574.988342 125.990639,594.904480 126.129784,614.819153 
	C126.137199,615.880798 127.890572,616.930237 128.831177,617.985352 
	C128.881332,619.714539 128.931503,621.443665 128.800522,623.696228 
	C128.459854,624.506531 128.520889,624.754700 128.802521,624.964111 
	C128.849426,631.013184 128.896332,637.062195 128.593719,643.729004 
	C127.565346,645.454956 126.886475,646.563110 126.207596,647.671387 
	C127.081253,647.772217 127.954918,647.873047 128.828583,647.973877 
	C128.879211,648.428345 128.929855,648.882812 128.568481,649.694458 
	C127.522659,650.967468 126.888863,651.883362 126.255051,652.799194 
	C127.109779,652.872864 127.964508,652.946533 128.819229,653.020264 
	C128.874420,654.085876 128.929611,655.151489 128.714661,656.636841 
	C128.563660,657.366516 128.682785,657.676392 128.801910,657.986328 
M127.475677,620.848389 
	C127.165390,620.907166 126.855103,620.965942 126.544815,621.024658 
	C126.852654,621.095337 127.160492,621.166016 127.475677,620.848389 
z"/>
<path fill="#6764FA" opacity="1.000000" stroke="none" 
	d="
M1197.829590,316.867065 
	C1197.874756,343.959381 1197.919800,371.051666 1197.673096,398.949463 
	C1197.277832,417.541901 1197.166870,435.328827 1197.103516,453.115936 
	C1197.101318,453.718231 1197.578491,454.322266 1197.832275,454.925476 
	C1197.848511,483.316406 1197.864746,511.707306 1197.615723,540.913452 
	C1196.897705,548.996521 1196.126953,556.262207 1196.078857,563.532593 
	C1196.027710,571.268860 1196.895386,579.007996 1196.949219,586.748718 
	C1197.086914,606.534180 1197.022339,626.321289 1196.974731,646.107544 
	C1196.963745,650.684814 1196.461304,655.268799 1196.605835,659.836426 
	C1196.807373,666.205994 1197.404297,672.562988 1197.832031,678.925354 
	C1197.561157,686.116821 1197.161743,693.306885 1197.080811,700.500488 
	C1197.047119,703.499207 1197.691406,706.505554 1197.664673,709.985474 
	C1196.861938,711.260498 1196.421997,712.058411 1195.981934,712.856323 
	C1195.535522,712.898865 1195.088989,712.941345 1194.171631,712.549072 
	C1191.828491,711.741577 1189.957275,711.052307 1188.083496,711.044800 
	C1168.265503,710.965698 1148.446045,710.881531 1128.629639,711.083862 
	C1124.311523,711.127869 1122.911987,709.967896 1122.915161,705.488770 
	C1123.023682,554.103638 1123.020020,402.718445 1122.931641,251.333313 
	C1122.929199,247.200027 1124.165649,245.897675 1128.317505,245.934250 
	C1148.800415,246.114655 1169.285645,246.009583 1189.770142,246.034088 
	C1191.344971,246.035980 1192.919556,246.261124 1194.367676,246.372726 
	C1194.367676,251.042297 1194.367676,255.093735 1194.367676,259.511932 
	C1195.813843,258.872131 1196.824707,258.424866 1197.835693,257.977600 
	C1197.887939,265.983154 1197.940063,273.988708 1197.619141,282.760559 
	C1197.140869,292.923615 1196.988159,302.320343 1196.973267,311.717285 
	C1196.970581,313.433441 1197.529785,315.150452 1197.829590,316.867065 
z"/>
<path fill="#7976FB" opacity="1.000000" stroke="none" 
	d="
M1080.979248,775.113892 
	C1081.321045,773.003967 1081.960938,770.894165 1081.962036,768.784058 
	C1082.011719,675.979675 1082.089722,583.175110 1081.836182,490.371429 
	C1081.816895,483.310059 1079.322632,476.268402 1078.117554,469.193939 
	C1076.670166,460.699005 1073.992432,452.615997 1069.158813,445.502319 
	C1063.607300,437.331909 1058.275146,428.817169 1051.535400,421.693634 
	C1040.600586,410.136108 1027.500488,401.420959 1011.919739,396.878113 
	C1005.515076,395.010742 999.394470,392.095581 992.935059,390.512054 
	C987.078003,389.076233 980.936523,388.118530 974.919800,388.115051 
	C767.317993,387.994751 559.715942,387.912415 352.114624,388.243652 
	C338.629364,388.265167 325.337830,392.058990 312.716583,397.714783 
	C297.405334,404.576019 284.589325,414.648071 273.994659,427.305573 
	C268.114838,434.330261 263.722046,442.648590 259.049500,450.612946 
	C256.926208,454.232117 255.750458,458.407227 253.724548,462.665588 
	C252.857880,462.992401 252.411575,462.983826 251.962952,462.632874 
	C251.638962,461.215302 251.317307,460.140137 250.995636,459.064941 
	C251.339752,458.270081 251.683853,457.475220 252.352478,456.182129 
	C252.782715,454.418701 252.888412,453.153564 252.994110,451.888397 
	C252.994125,451.888397 253.010986,451.445129 253.380035,451.163635 
	C254.153122,450.251984 254.557159,449.621857 254.961197,448.991730 
	C254.961197,448.991730 254.978104,448.953888 255.217300,448.896942 
	C255.741257,448.675201 255.898346,448.428986 255.927795,448.101318 
	C255.927795,448.101318 255.921036,447.970398 256.331451,447.922485 
	C257.176483,446.205139 257.611084,444.535736 258.045685,442.866302 
	C260.320862,439.463165 262.596069,436.060028 265.338135,432.239502 
	C266.556854,430.273407 267.308777,428.724731 268.060669,427.176056 
	C268.060699,427.176056 268.455353,427.023407 268.999756,426.935181 
	C270.351227,425.581360 271.158295,424.315796 271.965332,423.050232 
	C271.965332,423.050232 271.985229,422.928741 272.229401,422.893127 
	C272.725128,422.719116 272.826263,422.508545 272.776978,422.225800 
	C278.098785,417.345306 283.437531,412.483093 288.737976,407.579529 
	C294.919922,401.860443 301.786804,397.405151 309.941132,394.886292 
	C318.750885,392.164917 327.266968,388.261749 336.225067,386.329712 
	C342.571503,384.960938 349.439606,386.011017 357.002686,385.969147 
	C370.954193,385.916656 383.977936,385.876404 397.001648,385.836182 
	C422.026917,385.884186 447.052155,385.932220 473.005249,385.965393 
	C544.776428,385.966431 615.619812,385.989014 686.463135,385.953918 
	C687.986877,385.953186 689.510315,385.290314 691.033875,384.936340 
	C691.033875,384.936340 691.020630,385.020691 691.451050,385.001160 
	C704.915161,384.922791 717.948792,384.863953 730.982422,384.805115 
	C734.706421,384.858002 738.430420,384.910889 743.048950,384.945740 
	C786.983704,384.955444 830.023865,384.983154 873.064087,385.010864 
	C873.064087,385.010864 872.979309,385.020721 873.215576,385.336426 
	C885.542786,385.768707 897.633606,385.913513 909.724915,385.963806 
	C911.123901,385.969635 912.525208,385.450531 913.925415,385.174805 
	C924.001465,384.777985 934.074463,384.235382 944.154358,384.026581 
	C953.657471,383.829712 963.177368,383.724915 972.671753,384.072754 
	C979.337585,384.317017 986.108582,384.789551 992.585449,386.253571 
	C999.544128,387.826447 1006.329529,390.388306 1012.979370,393.046906 
	C1020.543457,396.071075 1028.169800,399.155762 1035.240356,403.150024 
	C1047.651245,410.161133 1057.788452,419.824615 1065.581299,431.877014 
	C1068.550659,436.469360 1072.292725,440.617523 1074.826050,445.419952 
	C1077.145020,449.816284 1078.302490,454.824249 1079.983032,459.558746 
	C1089.200439,485.527649 1085.092651,512.502563 1085.580078,539.824341 
	C1085.057983,541.535767 1084.853394,542.522217 1084.853149,543.508606 
	C1084.837646,610.953125 1084.832520,678.397705 1084.879639,745.842224 
	C1084.880615,747.218689 1085.505005,748.594849 1085.838623,749.971130 
	C1085.568970,752.355103 1085.299316,754.739136 1084.810791,757.806213 
	C1083.922119,761.793762 1082.666626,765.174133 1085.822998,767.982361 
	C1085.873779,771.027283 1085.924438,774.072144 1085.616699,777.714355 
	C1083.845337,778.348816 1082.432373,778.385864 1081.048828,778.004883 
	C1081.045166,776.762512 1081.012207,775.938171 1080.979248,775.113892 
z"/>
<path fill="#7674FA" opacity="1.000000" stroke="none" 
	d="
M1197.904907,257.607513 
	C1196.824707,258.424866 1195.813843,258.872131 1194.367676,259.511932 
	C1194.367676,255.093735 1194.367676,251.042297 1194.367676,246.372726 
	C1192.919556,246.261124 1191.344971,246.035980 1189.770142,246.034088 
	C1169.285645,246.009583 1148.800415,246.114655 1128.317505,245.934250 
	C1124.165649,245.897675 1122.929199,247.200027 1122.931641,251.333313 
	C1123.020020,402.718445 1123.023682,554.103638 1122.915161,705.488770 
	C1122.911987,709.967896 1124.311523,711.127869 1128.629639,711.083862 
	C1148.446045,710.881531 1168.265503,710.965698 1188.083496,711.044800 
	C1189.957275,711.052307 1191.828491,711.741577 1193.841553,712.475952 
	C1169.209106,712.837524 1144.435669,712.837524 1119.091553,712.837524 
	C1119.091553,556.501038 1119.091553,400.453461 1119.091553,244.004822 
	C1129.216553,244.004822 1138.852661,244.004410 1148.488647,244.004913 
	C1163.145508,244.005661 1177.802368,243.984604 1192.458984,244.040482 
	C1194.042603,244.046524 1195.624756,244.499985 1197.585449,245.373566 
	C1198.249268,248.340637 1198.535278,250.680069 1198.821167,253.019501 
	C1198.538818,254.425476 1198.256470,255.831451 1197.904907,257.607513 
z"/>
<path fill="#7976FB" opacity="1.000000" stroke="none" 
	d="
M248.100128,538.466309 
	C248.770172,539.887024 249.887924,541.769592 249.898666,543.658386 
	C250.023666,565.645996 249.562225,587.646606 250.191635,609.616943 
	C250.441620,618.342224 252.716232,627.065735 254.600479,635.673767 
	C256.986847,646.575562 262.303192,656.295471 268.651581,665.316467 
	C272.327057,670.539307 276.904022,675.168823 281.354736,679.796570 
	C291.082306,689.911011 302.527222,697.237061 315.701904,702.440918 
	C324.642181,705.972290 333.626923,707.701050 342.970734,709.462280 
	C353.969269,711.535461 364.755493,710.881104 375.591278,710.888367 
	C587.978210,711.031677 800.365173,711.005066 1012.752197,710.925659 
	C1017.348633,710.923950 1020.947144,711.801758 1022.606323,716.636841 
	C1020.848755,716.327942 1019.384949,715.686279 1017.921143,715.044617 
	C1017.921143,715.044617 1017.989990,715.028992 1017.820679,714.755371 
	C1016.439636,714.004395 1015.227783,713.527100 1014.015991,713.049744 
	C869.573059,713.035828 725.130188,713.020935 580.687256,713.008118 
	C501.718353,713.001160 422.749390,713.021729 343.780548,712.959351 
	C334.746796,712.952209 326.075500,710.857178 317.804138,707.197998 
	C310.896240,704.141968 303.807434,701.420410 297.163422,697.868591 
	C292.760498,695.514709 288.734558,692.250427 285.014435,688.871216 
	C278.976318,683.386536 272.448944,678.108093 267.734039,671.582275 
	C261.696381,663.225647 255.997131,654.179565 252.468140,644.579285 
	C248.876785,634.809265 247.477417,624.263489 247.790329,613.395325 
	C248.504440,588.592102 248.026993,563.754578 248.100128,538.466309 
z"/>
<path fill="#7976FB" opacity="1.000000" stroke="none" 
	d="
M59.031872,275.971710 
	C58.096153,275.986176 57.160431,276.000641 55.421730,276.030426 
	C54.030674,278.113922 52.934540,280.181152 52.930660,282.250397 
	C52.871609,313.746826 52.975136,345.243500 52.961708,376.740112 
	C52.960812,378.843323 52.326168,380.946289 51.986282,383.049347 
	C50.241142,383.366516 48.498402,383.941711 46.750462,383.957977 
	C37.131882,384.047485 27.512030,383.997131 17.892616,384.001038 
	C10.995258,384.003845 10.988355,384.008270 10.986920,390.680145 
	C10.983393,407.099487 11.001040,423.518860 10.967299,439.938141 
	C10.963595,441.740265 10.680973,443.541779 10.025377,445.347961 
	C9.363906,443.545197 9.070788,441.738373 9.066542,439.930908 
	C9.027808,423.449249 9.053786,406.967438 9.012754,390.485779 
	C9.008879,388.928894 8.676301,387.372803 8.496330,385.816345 
	C8.168281,385.877228 7.840232,385.938080 7.512183,385.998962 
	C7.512183,407.450500 7.512183,428.902039 7.512183,451.053436 
	C8.778634,450.016113 9.402088,449.505463 10.025539,448.994781 
	C11.011508,452.022614 12.831997,453.171417 16.252110,453.093445 
	C27.904285,452.827789 39.568150,453.110413 51.223423,452.924652 
	C54.974743,452.864838 56.089092,454.203369 56.069904,457.855255 
	C55.925529,485.333984 55.945522,512.813599 55.506657,540.850464 
	C54.732697,542.926819 54.119465,544.432800 54.040108,545.966431 
	C53.555683,555.328674 53.192482,564.697083 52.501961,574.133545 
	C51.544205,575.138794 50.873348,576.073975 50.202484,577.009155 
	C50.137291,544.054016 50.069454,511.098816 50.008942,478.143646 
	C49.995220,470.670563 50.006920,463.197388 50.006920,454.999084 
	C45.803787,454.999084 41.720169,454.999146 37.636551,454.999115 
	C28.811935,454.998993 19.972189,454.687683 11.168399,455.115784 
	C5.919333,455.371063 4.807818,453.487885 4.872432,448.570496 
	C5.139302,428.260712 4.983964,407.945404 4.984259,387.632111 
	C4.984337,382.238770 6.958360,380.598175 12.418376,380.867798 
	C22.159666,381.348907 31.908577,381.744080 41.659054,381.949524 
	C49.801552,382.121124 50.098579,381.581848 50.083954,373.718231 
	C50.024830,341.929230 50.038830,310.140045 50.025925,278.350952 
	C50.025459,277.203308 50.025867,276.055695 50.025867,274.966492 
	C58.238987,271.387146 66.321953,272.103088 74.755211,272.730988 
	C85.262070,273.513245 95.911118,272.312866 106.501198,272.078369 
	C112.490974,271.945740 118.491364,271.888824 124.473946,272.126007 
	C125.919167,272.183289 127.312813,273.540985 128.389740,274.661560 
	C118.079727,275.019806 108.110153,275.017151 98.140579,275.014496 
	C87.731766,275.343445 77.322960,275.672363 66.342514,275.633606 
	C63.309498,273.447754 60.977760,272.867554 59.031872,275.971710 
z"/>
<path fill="#7674FA" opacity="1.000000" stroke="none" 
	d="
M1484.412598,422.037964 
	C1482.898315,419.223053 1483.572144,417.102203 1485.706055,414.562653 
	C1492.587280,406.372803 1499.001587,397.790619 1506.169067,388.627106 
	C1504.043213,388.388794 1502.382812,388.042664 1500.721924,388.040436 
	C1474.561035,388.005280 1448.399902,388.050568 1422.239258,387.970154 
	C1418.732666,387.959351 1416.720703,389.062531 1414.724487,392.271698 
	C1411.444214,397.544830 1407.004028,402.087860 1403.154785,407.018280 
	C1400.235962,410.756989 1397.555298,414.681915 1394.629395,418.414703 
	C1387.197266,427.896118 1379.723022,437.344971 1372.195923,446.751099 
	C1366.867310,453.410156 1361.310791,459.888977 1356.060791,466.608246 
	C1348.555908,476.213562 1341.266602,485.987152 1333.797974,495.621216 
	C1333.034302,496.606293 1331.675171,497.129761 1330.241943,497.901245 
	C1330.627441,496.485687 1331.186890,494.907928 1332.131348,493.610321 
	C1335.248901,489.327026 1338.472900,485.119537 1341.729614,480.940216 
	C1342.651489,479.757019 1343.824951,478.769653 1345.318848,477.278198 
	C1346.258179,475.606567 1346.761719,474.349304 1347.265259,473.092041 
	C1350.905762,468.530579 1354.546265,463.969147 1358.738281,459.217651 
	C1359.507324,458.726379 1359.724854,458.425201 1359.942383,458.124023 
	C1359.942383,458.123993 1359.939575,457.989868 1360.194336,457.873840 
	C1360.684326,457.574432 1360.861694,457.346130 1360.981201,457.072998 
	C1364.640869,452.043488 1368.227661,446.959015 1371.979492,441.999329 
	C1376.036865,436.635834 1380.331909,431.451904 1384.370850,426.075165 
	C1389.271973,419.550934 1393.974487,412.877960 1398.836670,406.323975 
	C1402.811646,400.965759 1406.962402,395.737427 1410.902832,390.354431 
	C1413.082886,387.376190 1415.698120,385.931335 1419.513062,385.948578 
	C1443.259766,386.055969 1467.007202,386.028473 1490.754150,385.949921 
	C1493.171265,385.941925 1495.812256,385.801117 1497.953003,384.839478 
	C1501.867432,383.081207 1504.791870,385.140778 1507.183350,387.179688 
	C1510.800659,390.263641 1506.489502,392.753571 1505.176636,395.522400 
	C1504.455688,396.058929 1504.208740,396.589050 1503.961792,397.119141 
	C1501.666504,399.869537 1499.371094,402.619904 1496.795166,405.832062 
	C1496.299438,406.495514 1496.140991,406.734558 1496.039185,407.011047 
	C1496.039185,407.011047 1496.022217,407.050232 1495.796875,407.105347 
	C1495.296143,407.302582 1495.150146,407.528198 1495.133545,407.837402 
	C1494.374878,409.351379 1493.834473,411.035156 1492.814575,412.345856 
	C1490.253174,415.637543 1487.474854,418.760529 1484.412598,422.037964 
z"/>
<path fill="#716FFB" opacity="1.000000" stroke="none" 
	d="
M1321.947021,267.628967 
	C1320.857056,266.690948 1319.221069,265.510956 1319.134033,264.226074 
	C1318.808716,259.422119 1319.228394,254.563919 1318.827881,249.771286 
	C1318.717041,248.444748 1316.740479,246.200470 1315.606201,246.191849 
	C1293.480713,246.023651 1271.353271,246.121490 1249.226318,246.190109 
	C1248.754150,246.191574 1248.283203,246.490723 1247.045654,246.939636 
	C1245.889160,247.727997 1245.165771,248.222946 1245.158325,248.728226 
	C1245.058472,255.678268 1244.989502,262.631012 1245.120117,269.579163 
	C1245.135864,270.417450 1246.361572,271.233032 1247.026489,272.059143 
	C1247.018921,275.824646 1247.005249,279.590149 1247.004761,283.355621 
	C1247.000244,320.953827 1246.997925,358.552032 1246.995239,396.150238 
	C1246.994995,397.950562 1246.995117,399.750885 1246.606445,401.547028 
	C1246.036133,398.780151 1245.465698,396.013306 1244.545898,393.095612 
	C1244.152222,391.243134 1244.108032,389.541473 1244.332886,387.425079 
	C1244.601929,387.010345 1244.985352,387.014618 1244.991943,387.277466 
	C1245.118286,387.980560 1245.238159,388.420807 1245.358032,388.861053 
	C1245.573853,388.745941 1245.789673,388.630829 1246.005493,388.515747 
	C1245.674072,388.008240 1245.342651,387.500732 1245.027588,386.589905 
	C1244.754517,382.457428 1244.465088,378.728271 1244.175659,374.999115 
	C1243.785156,365.415619 1243.037354,355.830536 1243.079224,346.248932 
	C1243.164185,326.837524 1243.879150,307.428619 1243.941772,288.017426 
	C1243.983398,275.109344 1243.333740,262.199341 1243.022095,249.289520 
	C1242.963135,246.843353 1242.349976,244.006821 1246.336182,244.009186 
	C1271.626465,244.024216 1296.916870,244.016830 1322.977173,244.016830 
	C1322.977173,249.891357 1322.977173,255.476425 1322.613525,261.607666 
	C1322.447510,263.105530 1322.645020,264.057159 1322.842651,265.008789 
	C1322.598999,265.785492 1322.355347,266.562195 1321.947021,267.628967 
M1245.775269,371.158661 
	C1245.569336,371.250488 1245.341675,371.314911 1245.171143,371.451111 
	C1245.121094,371.491180 1245.233521,371.734650 1245.271606,371.884888 
	C1245.464966,371.757477 1245.658447,371.630066 1245.775269,371.158661 
z"/>
<path fill="#7976FB" opacity="1.000000" stroke="none" 
	d="
M129.506042,456.976135 
	C128.143311,456.869812 127.175301,456.684784 126.207291,456.499756 
	C126.790314,455.436951 127.127579,453.858246 128.015396,453.435333 
	C129.267578,452.838837 130.927231,453.006470 132.412827,453.004974 
	C152.046112,452.985016 171.679398,453.001099 191.312698,452.988861 
	C197.841675,452.984802 198.990051,451.885681 198.997879,445.540985 
	C199.019440,428.070709 199.018204,410.600342 198.996719,393.130066 
	C198.988953,386.817261 198.149536,386.001678 191.707642,385.995972 
	C172.240738,385.978729 152.773804,385.998108 133.306900,385.981384 
	C126.817169,385.975800 126.007004,385.162201 125.996902,378.881989 
	C125.991554,375.554352 126.002647,372.226685 126.380646,368.313293 
	C127.169418,366.045868 127.360275,364.262543 128.065018,362.712921 
	C128.693161,361.331726 129.889740,360.209015 130.835449,358.972229 
	C130.886688,359.435822 130.937927,359.899414 130.744034,360.849854 
	C130.311676,361.567535 130.161179,361.820251 130.047394,362.094879 
	C129.695145,366.617188 129.327652,371.138397 128.995682,375.662201 
	C128.744766,379.081360 131.518677,382.004028 135.067032,382.005005 
	C154.032684,382.010254 172.998322,381.991943 191.963974,381.982178 
	C194.433014,381.980927 196.902054,381.981964 199.680847,381.981964 
	C199.680847,406.368713 199.680847,430.391083 199.680847,454.998962 
	C197.889648,454.998962 196.120392,454.999084 194.351151,454.998962 
	C174.719666,454.997864 155.087830,454.945770 135.457260,455.078461 
	C133.601074,455.091003 131.752747,456.263458 129.506042,456.976135 
z"/>
<path fill="#807FFC" opacity="1.000000" stroke="none" 
	d="
M55.977791,710.907837 
	C77.899025,710.939453 99.820580,711.021362 121.740707,710.880493 
	C123.091393,710.871887 125.570061,709.142395 125.601143,708.153198 
	C125.953949,696.925598 125.931671,685.686218 126.009750,674.449951 
	C126.010902,674.283875 126.011635,674.117798 126.389030,673.479980 
	C127.517555,673.007751 128.269623,673.007324 129.097168,673.414246 
	C129.723267,678.693726 130.273880,683.565796 130.824493,688.437927 
	C130.884094,694.421997 131.081451,700.408813 130.959290,706.389160 
	C130.863266,711.090027 124.488663,715.039307 119.827103,714.679260 
	C113.158180,714.164185 106.411461,714.744385 99.700775,714.652161 
	C94.779617,714.584656 89.865280,714.058044 84.943733,713.971008 
	C78.453018,713.856201 71.956657,714.061218 65.465912,713.947144 
	C62.514446,713.895264 59.570637,713.407715 56.304222,712.658630 
	C55.982655,711.768982 55.980225,711.338379 55.977791,710.907837 
z"/>
<path fill="#8E8CFB" opacity="1.000000" stroke="none" 
	d="
M130.901566,358.510132 
	C129.889740,360.209015 128.693161,361.331726 128.065018,362.712921 
	C127.360275,364.262543 127.169418,366.045868 126.394737,367.844177 
	C126.013725,339.209473 125.888313,310.457489 126.076836,281.707489 
	C126.107658,277.006775 124.615440,275.729828 120.114189,275.874756 
	C113.000175,276.103851 105.865387,275.687988 98.439987,275.279785 
	C108.110153,275.017151 118.079727,275.019806 128.517151,275.019714 
	C128.984985,275.016937 128.999634,275.000610 128.979858,275.445801 
	C128.998520,277.945618 129.036942,280.000275 129.045837,282.519226 
	C129.016296,289.216797 129.016296,295.450012 129.016296,301.683258 
	C129.206116,301.685669 129.395935,301.688110 129.585754,301.690521 
	C129.999588,298.177460 130.413437,294.664429 130.827271,291.151367 
	C130.873749,303.078339 130.920227,315.005280 130.688263,327.064667 
	C130.219864,324.199158 130.029892,321.201233 129.839920,318.203278 
	C129.624100,318.218628 129.408295,318.233948 129.192490,318.249298 
	C129.192490,326.413361 129.192490,334.577454 129.192490,342.741547 
	C129.349243,342.745880 129.505997,342.750214 129.662766,342.754547 
	C130.066345,338.778137 130.469925,334.801758 130.873520,330.825378 
	C130.904907,339.899597 130.936295,348.973846 130.901566,358.510132 
z"/>
<path fill="#716FFB" opacity="1.000000" stroke="none" 
	d="
M1017.955933,715.415161 
	C1019.384949,715.686279 1020.848755,716.327942 1022.669067,716.985535 
	C1027.945435,721.643311 1032.952637,726.196472 1037.767578,730.944702 
	C1049.452148,742.466980 1061.070435,754.056763 1072.644775,765.689758 
	C1073.889526,766.940857 1074.668701,768.655273 1075.815308,770.861816 
	C1077.650879,773.853516 1079.335083,776.138184 1081.019287,778.422913 
	C1082.432373,778.385864 1083.845337,778.348816 1085.543945,778.165527 
	C1084.045410,780.905457 1077.899658,780.836243 1075.582397,777.962830 
	C1071.105225,772.410950 1066.849731,766.647888 1062.011108,761.427551 
	C1054.889771,753.744141 1047.356201,746.441589 1039.964966,739.009827 
	C1032.733521,731.738708 1025.453125,724.516113 1018.232056,717.234680 
	C1017.950684,716.950928 1018.062195,716.277527 1017.955933,715.415161 
z"/>
<path fill="#6764FA" opacity="1.000000" stroke="none" 
	d="
M50.257584,704.045288 
	C50.177799,678.461060 50.083355,652.876831 50.024208,627.292480 
	C49.993092,613.833313 50.023682,600.374023 50.324303,586.654175 
	C51.310902,586.953186 51.999611,587.512817 52.745842,588.532715 
	C52.832317,600.650574 52.861271,612.308228 52.632759,624.032166 
	C52.555508,624.741394 52.735718,625.384399 52.941780,626.491028 
	C52.957397,631.630066 52.947170,636.305481 52.601437,641.096436 
	C50.620289,643.357971 50.025116,645.386414 52.941994,647.487122 
	C52.949806,652.290588 52.931877,656.631775 52.617027,661.054932 
	C52.509178,662.102722 52.698250,663.068481 52.911377,664.500122 
	C52.816593,676.943542 52.697762,688.921143 52.410614,700.957031 
	C52.351891,701.377686 52.461487,701.739868 52.613190,702.405884 
	C52.641369,703.117188 52.627441,703.524780 52.319347,703.955139 
	C51.435982,704.000427 50.846783,704.022888 50.257584,704.045288 
z"/>
<path fill="#716FFB" opacity="1.000000" stroke="none" 
	d="
M128.901169,617.550659 
	C127.890572,616.930237 126.137199,615.880798 126.129784,614.819153 
	C125.990639,594.904480 126.055038,574.988342 126.106758,555.072571 
	C126.107849,554.650696 126.462143,554.229736 126.924950,553.200684 
	C127.573318,554.609863 127.998421,555.533813 128.626175,556.722900 
	C130.767929,577.026184 131.917801,597.066223 128.901169,617.550659 
z"/>
<path fill="#0000FF" opacity="1.000000" stroke="none" 
	d="
M690.563110,384.962769 
	C689.510315,385.290314 687.986877,385.953186 686.463135,385.953918 
	C615.619812,385.989014 544.776428,385.966431 473.469055,385.891235 
	C474.888092,385.554657 476.770996,385.036041 478.654266,385.034821 
	C549.133606,384.989929 619.612976,384.992828 690.563110,384.962769 
z"/>
<path fill="#0000FF" opacity="1.000000" stroke="none" 
	d="
M1085.905762,749.508972 
	C1085.505005,748.594849 1084.880615,747.218689 1084.879639,745.842224 
	C1084.832520,678.397705 1084.837646,610.953125 1084.853149,543.508606 
	C1084.853394,542.522217 1085.057983,541.535767 1085.502930,540.289185 
	C1085.892334,544.016724 1085.993042,548.004395 1085.993042,551.992065 
	C1085.993896,617.677002 1085.981934,683.361877 1085.905762,749.508972 
z"/>
<path fill="#7976FB" opacity="1.000000" stroke="none" 
	d="
M1428.451904,714.908936 
	C1429.530884,714.228943 1431.073853,713.086975 1432.621704,713.080688 
	C1459.606567,712.971558 1486.591919,712.985291 1513.577148,713.048645 
	C1514.951660,713.051819 1516.324707,713.742981 1517.839355,714.474976 
	C1514.348145,714.894226 1510.715820,715.001892 1507.083496,715.002380 
	C1481.028442,715.005615 1454.973267,714.987183 1428.451904,714.908936 
z"/>
<path fill="#807FFC" opacity="1.000000" stroke="none" 
	d="
M1197.907471,678.468384 
	C1197.404297,672.562988 1196.807373,666.205994 1196.605835,659.836426 
	C1196.461304,655.268799 1196.963745,650.684814 1196.974731,646.107544 
	C1197.022339,626.321289 1197.086914,606.534180 1196.949219,586.748718 
	C1196.895386,579.007996 1196.027710,571.268860 1196.078857,563.532593 
	C1196.126953,556.262207 1196.897705,548.996521 1197.548096,541.380127 
	C1197.831787,542.184753 1197.992920,543.337891 1197.993042,544.491089 
	C1197.998901,588.997864 1197.989868,633.504578 1197.907471,678.468384 
z"/>
<path fill="#807FFC" opacity="1.000000" stroke="none" 
	d="
M1249.482788,712.895874 
	C1250.397095,712.221313 1251.771240,711.097290 1253.151611,711.089478 
	C1273.135132,710.975403 1293.119751,710.991760 1313.103760,711.058044 
	C1314.312256,711.062012 1315.518555,711.747437 1316.868164,712.479492 
	C1294.655396,712.884094 1272.300415,712.924805 1249.482788,712.895874 
z"/>
<path fill="#0000FF" opacity="1.000000" stroke="none" 
	d="
M872.840881,384.633423 
	C830.023865,384.983154 786.983704,384.955444 743.480469,384.866211 
	C744.074768,384.536621 745.131775,384.035065 746.189331,384.034088 
	C787.674683,383.995972 829.160156,384.002289 870.645569,384.015350 
	C871.302917,384.015564 871.960327,384.172302 872.840881,384.633423 
z"/>
<path fill="#7976FB" opacity="1.000000" stroke="none" 
	d="
M251.953918,478.978943 
	C251.296265,482.968628 250.147385,486.949036 250.071518,490.949738 
	C249.827194,503.833130 250.018677,516.724304 249.928741,529.611633 
	C249.916901,531.310242 249.246887,533.004211 248.524170,534.848999 
	C248.118622,513.980469 248.070602,492.963287 248.300568,471.475708 
	C248.578552,471.005280 248.996948,470.995117 248.996902,471.431763 
	C249.855865,474.291260 246.827469,478.330780 251.953918,478.978943 
z"/>
<path fill="#807FFC" opacity="1.000000" stroke="none" 
	d="
M1243.112305,697.489868 
	C1244.239624,696.125061 1245.293213,695.211609 1246.867432,693.846863 
	C1246.867432,698.754578 1246.938721,703.506531 1246.773682,708.250305 
	C1246.753906,708.820251 1245.451538,709.345520 1244.327148,709.877563 
	C1243.620117,705.889587 1243.329468,701.915466 1243.112305,697.489868 
z"/>
<path fill="#807FFC" opacity="1.000000" stroke="none" 
	d="
M1197.907593,454.468445 
	C1197.578491,454.322266 1197.101318,453.718231 1197.103516,453.115936 
	C1197.166870,435.328827 1197.277832,417.541901 1197.607056,399.419281 
	C1197.882935,417.392883 1197.932983,435.702148 1197.907593,454.468445 
z"/>
<path fill="#807FFC" opacity="1.000000" stroke="none" 
	d="
M1244.092285,622.531250 
	C1247.108765,632.112244 1246.579834,642.202209 1244.393677,652.615112 
	C1244.117065,642.940491 1244.067017,632.964417 1244.092285,622.531250 
z"/>
<path fill="#807FFC" opacity="1.000000" stroke="none" 
	d="
M1244.092407,405.531281 
	C1244.394409,405.509094 1244.820435,405.944611 1244.819214,406.378876 
	C1244.775513,421.692291 1244.691895,437.005585 1244.390381,452.617767 
	C1244.117065,437.273865 1244.067017,421.631134 1244.092407,405.531281 
z"/>
<path fill="#0000FF" opacity="1.000000" stroke="none" 
	d="
M913.467773,385.102051 
	C912.525208,385.450531 911.123901,385.969635 909.724915,385.963806 
	C897.633606,385.913513 885.542786,385.768707 873.208923,385.294250 
	C886.314087,384.967346 899.662048,384.998291 913.467773,385.102051 
z"/>
<path fill="#0000FF" opacity="1.000000" stroke="none" 
	d="
M730.718872,384.474548 
	C717.948792,384.863953 704.915161,384.922791 691.408691,384.996216 
	C691.782959,384.675262 692.629578,384.049042 693.477173,384.047882 
	C705.803162,384.030792 718.129211,384.097382 730.718872,384.474548 
z"/>
<path fill="#0000FF" opacity="1.000000" stroke="none" 
	d="
M396.745911,385.495239 
	C383.977936,385.876404 370.954193,385.916656 357.466370,385.896362 
	C358.047363,385.557373 359.092346,385.037811 360.137573,385.037262 
	C372.255066,385.030884 384.372620,385.103027 396.745911,385.495239 
z"/>
<path fill="#807FFC" opacity="1.000000" stroke="none" 
	d="
M1244.092285,573.531250 
	C1244.446777,577.000427 1244.940430,580.925659 1244.958740,584.853088 
	C1244.993408,592.318726 1244.756104,599.785706 1244.399292,607.584351 
	C1244.116943,596.607178 1244.067017,585.297729 1244.092285,573.531250 
z"/>
<path fill="#0000FF" opacity="1.000000" stroke="none" 
	d="
M1197.900635,316.413452 
	C1197.529785,315.150452 1196.970581,313.433441 1196.973267,311.717285 
	C1196.988159,302.320343 1197.140869,292.923615 1197.542480,283.217957 
	C1197.883179,293.926025 1197.927490,304.942932 1197.900635,316.413452 
z"/>
<path fill="#6764FA" opacity="1.000000" stroke="none" 
	d="
M130.895203,290.690796 
	C130.413437,294.664429 129.999588,298.177460 129.585754,301.690521 
	C129.395935,301.688110 129.206116,301.685669 129.016296,301.683258 
	C129.016296,295.450012 129.016296,289.216797 129.338409,282.501190 
	C130.052689,282.003296 130.444870,281.987762 130.837036,281.972229 
	C130.879059,284.724884 130.921097,287.477539 130.895203,290.690796 
z"/>
<path fill="#6764FA" opacity="1.000000" stroke="none" 
	d="
M130.922546,330.455566 
	C130.469925,334.801758 130.066345,338.778137 129.662766,342.754547 
	C129.505997,342.750214 129.349243,342.745880 129.192490,342.741547 
	C129.192490,334.577454 129.192490,326.413361 129.192490,318.249298 
	C129.408295,318.233948 129.624100,318.218628 129.839920,318.203278 
	C130.029892,321.201233 130.219864,324.199158 130.618866,327.518616 
	C130.875778,328.588684 130.923660,329.337219 130.922546,330.455566 
z"/>
<path fill="#6764FA" opacity="1.000000" stroke="none" 
	d="
M130.921814,688.042786 
	C130.273880,683.565796 129.723267,678.693726 129.085388,673.411987 
	C128.998138,673.002441 129.004623,673.020081 129.179199,672.877075 
	C129.264313,672.242920 129.174866,671.751831 129.002335,670.947266 
	C128.873856,670.422424 128.828476,670.211060 128.803116,669.754272 
	C128.823151,669.508728 128.771194,669.018799 128.789520,668.688110 
	C128.784210,667.917480 128.760559,667.477478 128.736923,667.037537 
	C128.836182,665.984375 128.935440,664.931274 129.078522,663.489258 
	C129.754578,671.282837 130.386841,679.465271 130.921814,688.042786 
z"/>
<path fill="#0000FF" opacity="1.000000" stroke="none" 
	d="
M1321.905518,703.618164 
	C1321.552856,698.521118 1321.215942,692.954041 1321.001953,687.382202 
	C1320.893433,684.559998 1321.006470,681.729309 1321.081055,678.436890 
	C1321.428589,683.253235 1321.775513,688.532837 1321.976807,693.817993 
	C1322.095093,696.922852 1321.981445,700.036438 1321.905518,703.618164 
z"/>
<path fill="#6764FA" opacity="1.000000" stroke="none" 
	d="
M50.130989,577.441772 
	C50.873348,576.073975 51.544205,575.138794 52.544506,574.568115 
	C52.818920,577.264404 52.763893,579.596252 52.444061,582.006775 
	C51.531662,582.728333 50.884064,583.371216 50.236458,584.014038 
	C50.177467,581.967529 50.118481,579.920959 50.130989,577.441772 
z"/>
<path fill="#6764FA" opacity="1.000000" stroke="none" 
	d="
M248.996948,470.995117 
	C248.996948,470.995117 248.578552,471.005280 248.369415,471.012817 
	C248.876068,467.172363 249.591827,463.324371 250.651611,459.270660 
	C251.317307,460.140137 251.638962,461.215302 251.907715,462.997131 
	C250.902191,466.134247 249.949570,468.564667 248.996948,470.995117 
z"/>
<path fill="#6764FA" opacity="1.000000" stroke="none" 
	d="
M55.955978,710.616150 
	C55.980225,711.338379 55.982655,711.768982 55.993507,712.521423 
	C52.439362,712.956238 50.534718,711.141296 50.437183,707.342834 
	C51.461319,707.012146 52.073895,707.042358 52.781075,707.419067 
	C53.876698,708.424438 54.877712,709.083252 55.878712,709.742065 
	C55.897182,709.936218 55.915672,710.130310 55.955978,710.616150 
z"/>
<path fill="#716FFB" opacity="1.000000" stroke="none" 
	d="
M1085.895508,767.542236 
	C1082.666626,765.174133 1083.922119,761.793762 1084.856445,758.218750 
	C1085.403198,760.999451 1085.685547,764.050842 1085.895508,767.542236 
z"/>
<path fill="#6764FA" opacity="1.000000" stroke="none" 
	d="
M1244.105957,375.456177 
	C1244.465088,378.728271 1244.754517,382.457428 1245.020996,386.594116 
	C1244.998047,387.001678 1244.985352,387.014618 1244.985352,387.014618 
	C1244.985352,387.014618 1244.601929,387.010345 1244.410400,387.004028 
	C1244.157959,383.302887 1244.097046,379.608063 1244.105957,375.456177 
z"/>
<path fill="#7976FB" opacity="1.000000" stroke="none" 
	d="
M50.189873,584.343628 
	C50.884064,583.371216 51.531662,582.728333 52.524139,582.441711 
	C52.808781,584.556091 52.748547,586.314270 52.688316,588.072449 
	C51.999611,587.512817 51.310902,586.953186 50.428478,586.195740 
	C50.204269,585.556335 50.173779,585.114746 50.189873,584.343628 
z"/>
<path fill="#7976FB" opacity="1.000000" stroke="none" 
	d="
M130.914551,281.558533 
	C130.444870,281.987762 130.052689,282.003296 129.367950,282.036865 
	C129.036942,280.000275 128.998520,277.945618 128.971466,275.452148 
	C129.652573,277.057129 130.322311,279.100983 130.914551,281.558533 
z"/>
<path fill="#7674FA" opacity="1.000000" stroke="none" 
	d="
M1329.591553,497.923401 
	C1328.573120,500.082520 1327.163208,502.307007 1325.473877,504.704681 
	C1326.529663,502.581543 1327.864746,500.285156 1329.591553,497.923401 
z"/>
<path fill="#6764FA" opacity="1.000000" stroke="none" 
	d="
M257.745911,443.071228 
	C257.611084,444.535736 257.176483,446.205139 256.396515,447.914551 
	C256.516144,446.395050 256.981140,444.835571 257.745911,443.071228 
z"/>
<path fill="#716FFB" opacity="1.000000" stroke="none" 
	d="
M128.893875,647.583618 
	C127.954918,647.873047 127.081253,647.772217 126.207596,647.671387 
	C126.886475,646.563110 127.565346,645.454956 128.524490,644.195679 
	C128.856232,645.094116 128.907700,646.143738 128.893875,647.583618 
z"/>
<path fill="#716FFB" opacity="1.000000" stroke="none" 
	d="
M128.895996,652.648438 
	C127.964508,652.946533 127.109779,652.872864 126.255051,652.799194 
	C126.888863,651.883362 127.522659,650.967468 128.498077,650.031921 
	C128.884064,650.766968 128.928421,651.521790 128.895996,652.648438 
z"/>
<path fill="#6764FA" opacity="1.000000" stroke="none" 
	d="
M1347.082520,473.379456 
	C1346.761719,474.349304 1346.258179,475.606567 1345.460449,476.946442 
	C1345.744019,475.908295 1346.321777,474.787567 1347.082520,473.379456 
z"/>
<path fill="#7976FB" opacity="1.000000" stroke="none" 
	d="
M52.686470,707.072510 
	C52.073895,707.042358 51.461319,707.012146 50.542397,706.977295 
	C50.203625,706.238281 50.171204,705.503845 50.198181,704.407349 
	C50.846783,704.022888 51.435982,704.000427 52.415138,704.341064 
	C52.765553,705.493591 52.726013,706.283081 52.686470,707.072510 
z"/>
<path fill="#6764FA" opacity="1.000000" stroke="none" 
	d="
M267.703918,427.220581 
	C267.308777,428.724731 266.556854,430.273407 265.488281,431.917603 
	C265.896790,430.430420 266.621979,428.847778 267.703918,427.220581 
z"/>
<path fill="#6764FA" opacity="1.000000" stroke="none" 
	d="
M1198.891602,252.592026 
	C1198.535278,250.680069 1198.249268,248.340637 1197.954956,245.588928 
	C1198.285156,247.505936 1198.623535,249.835251 1198.891602,252.592026 
z"/>
<path fill="#6764FA" opacity="1.000000" stroke="none" 
	d="
M271.615662,423.060822 
	C271.158295,424.315796 270.351227,425.581360 269.208862,426.903015 
	C269.671021,425.663208 270.468506,424.367310 271.615662,423.060822 
z"/>
<path fill="#6764FA" opacity="1.000000" stroke="none" 
	d="
M252.691620,452.114380 
	C252.888412,453.153564 252.782715,454.418701 252.427216,455.856812 
	C252.247986,454.799957 252.318558,453.570160 252.691620,452.114380 
z"/>
<path fill="#6764FA" opacity="1.000000" stroke="none" 
	d="
M1322.904541,264.633301 
	C1322.645020,264.057159 1322.447510,263.105530 1322.544434,262.070435 
	C1322.881348,262.743927 1322.923828,263.500854 1322.904541,264.633301 
z"/>
<path fill="#7976FB" opacity="1.000000" stroke="none" 
	d="
M128.899506,461.652466 
	C128.109772,461.751343 127.384415,461.528564 126.659058,461.305786 
	C127.177994,460.885925 127.696938,460.466064 128.523865,460.039093 
	C128.875854,460.464935 128.919861,460.897858 128.899506,461.652466 
z"/>
<path fill="#716FFB" opacity="1.000000" stroke="none" 
	d="
M1014.184326,713.341003 
	C1015.227783,713.527100 1016.439636,714.004395 1017.809387,714.788818 
	C1016.762451,714.607971 1015.557495,714.120117 1014.184326,713.341003 
z"/>
<path fill="#7674FA" opacity="1.000000" stroke="none" 
	d="
M1196.331543,712.897705 
	C1196.421997,712.058411 1196.861938,711.260498 1197.542236,710.320068 
	C1197.415283,711.098083 1197.048218,712.018555 1196.331543,712.897705 
z"/>
<path fill="#6764FA" opacity="1.000000" stroke="none" 
	d="
M1504.212769,396.973419 
	C1504.208740,396.589050 1504.455688,396.058929 1504.886963,395.696808 
	C1504.868774,396.185760 1504.666260,396.506714 1504.212769,396.973419 
z"/>
<path fill="#6764FA" opacity="1.000000" stroke="none" 
	d="
M254.666779,449.048187 
	C254.557159,449.621857 254.153122,450.251984 253.455902,450.955200 
	C253.565948,450.387085 253.969162,449.745850 254.666779,449.048187 
z"/>
<path fill="#716FFB" opacity="1.000000" stroke="none" 
	d="
M128.879776,657.744385 
	C128.682785,657.676392 128.563660,657.366516 128.644150,657.031860 
	C128.881714,657.172241 128.919678,657.337341 128.879776,657.744385 
z"/>
<path fill="#807FFC" opacity="1.000000" stroke="none" 
	d="
M1244.114014,690.299011 
	C1244.451782,690.268127 1244.516968,690.495239 1244.265137,690.857239 
	C1244.162598,690.950195 1244.055664,690.515198 1244.114014,690.299011 
z"/>
<path fill="#6764FA" opacity="1.000000" stroke="none" 
	d="
M1495.340088,407.796387 
	C1495.150146,407.528198 1495.296143,407.302582 1495.775757,407.102661 
	C1495.935547,407.342865 1495.791016,407.579712 1495.340088,407.796387 
z"/>
<path fill="#6764FA" opacity="1.000000" stroke="none" 
	d="
M272.592896,422.253815 
	C272.826263,422.508545 272.725128,422.719116 272.290649,422.899353 
	C272.085327,422.665100 272.185699,422.445312 272.592896,422.253815 
z"/>
<path fill="#6764FA" opacity="1.000000" stroke="none" 
	d="
M1360.739014,457.111328 
	C1360.861694,457.346130 1360.684326,457.574432 1360.261353,457.869476 
	C1360.034790,457.612335 1360.175903,457.335205 1360.739014,457.111328 
z"/>
<path fill="#6764FA" opacity="1.000000" stroke="none" 
	d="
M1496.302490,406.973358 
	C1496.140991,406.734558 1496.299438,406.495514 1496.682251,406.156860 
	C1496.755249,406.325134 1496.660522,406.630402 1496.302490,406.973358 
z"/>
<path fill="#6764FA" opacity="1.000000" stroke="none" 
	d="
M1359.659424,458.224823 
	C1359.724854,458.425201 1359.507324,458.726379 1359.069580,459.216125 
	C1359.025146,459.045013 1359.200806,458.685333 1359.659424,458.224823 
z"/>
<path fill="#6764FA" opacity="1.000000" stroke="none" 
	d="
M255.709991,448.158478 
	C255.898346,448.428986 255.741257,448.675201 255.237808,448.899841 
	C255.069305,448.643280 255.227005,448.395264 255.709991,448.158478 
z"/>
<path fill="#716FFB" opacity="1.000000" stroke="none" 
	d="
M128.879135,624.733032 
	C128.520889,624.754700 128.459854,624.506531 128.731094,624.123962 
	C128.842804,624.028320 128.955750,624.501953 128.879135,624.733032 
z"/>
<path fill="#8E8CFB" opacity="1.000000" stroke="none" 
	d="
M130.288940,362.012024 
	C130.161179,361.820251 130.311676,361.567535 130.667145,361.193268 
	C130.733749,361.342926 130.632111,361.636047 130.288940,362.012024 
z"/>
<path fill="#716FFB" opacity="1.000000" stroke="none" 
	d="
M969.987793,643.985352 
	C968.364075,644.854065 966.758789,646.435608 965.113586,646.478333 
	C952.182800,646.814148 939.244446,646.943054 926.308105,646.969788 
	C898.162292,647.027954 870.016296,646.987793 841.870361,646.987793 
	C785.466248,646.987793 729.062195,646.987793 672.658081,646.987793 
	C612.256958,646.987793 551.855835,646.987793 491.454742,646.987793 
	C453.352386,646.987793 415.249756,647.054810 377.148132,646.887817 
	C373.178650,646.870422 369.215179,645.465820 365.600098,644.343750 
	C567.296753,643.983521 768.642273,643.984436 969.987793,643.985352 
z"/>
<path fill="#807FFC" opacity="1.000000" stroke="none" 
	d="
M970.362610,643.973145 
	C768.642273,643.984436 567.296753,643.983521 365.484558,643.983276 
	C365.017914,643.983887 365.006927,643.994934 365.046936,643.725281 
	C365.069855,642.361145 365.052734,641.266663 365.414734,640.096069 
	C367.228577,640.456116 368.663330,640.892334 370.416260,641.584106 
	C382.823486,641.893127 394.912567,641.946533 407.470154,641.999878 
	C412.402374,641.999817 416.869812,642.114136 421.328674,641.968140 
	C425.852905,641.820007 430.368683,641.414795 435.362091,641.078796 
	C446.261261,641.064331 456.686523,641.093201 467.372864,641.444580 
	C477.019623,641.844666 486.405365,641.975708 495.790863,641.957825 
	C497.823914,641.953918 499.855927,641.414551 502.362305,641.078125 
	C617.099182,641.025208 731.362183,641.015869 845.625183,641.011719 
	C846.456482,641.011658 847.287781,641.083069 848.378418,641.444275 
	C866.422424,641.844971 884.207092,641.922485 902.460938,642.005127 
	C923.225037,642.012085 943.519897,642.034485 963.814575,641.978943 
	C965.549255,641.974243 967.282410,641.450684 969.395264,641.097778 
	C971.482300,640.657227 973.190430,640.287109 975.245850,639.935486 
	C976.420837,640.301575 977.248474,640.649231 978.076111,640.996887 
	C975.629883,641.984924 973.183655,642.972900 970.362610,643.973145 
z"/>
<path fill="#7976FB" opacity="1.000000" stroke="none" 
	d="
M366.009247,455.010651 
	C564.656555,455.007507 763.303894,454.981842 961.951050,455.142273 
	C966.510376,455.145966 971.067993,457.252228 975.527466,458.740692 
	C974.942200,459.448303 974.455933,459.792938 973.548340,460.067627 
	C965.055542,458.997772 956.991760,457.217010 948.911194,457.137268 
	C918.945129,456.841461 888.973572,457.106171 858.539551,457.099182 
	C844.791626,457.023438 831.508118,456.979675 818.225037,457.038696 
	C816.875977,457.044678 815.529663,457.669403 814.156250,458.065125 
	C814.130493,458.123230 814.013550,458.172974 813.546509,458.170349 
	C805.670837,457.777069 798.265625,457.160187 790.852661,457.046661 
	C778.576660,456.858612 766.295471,456.953918 754.017273,457.041687 
	C752.331299,457.053711 750.649902,457.707428 748.972961,458.021820 
	C748.979492,457.979553 749.064453,457.989349 748.591675,458.004425 
	C729.406250,458.021362 710.693604,458.023224 691.990479,458.012543 
	C692.000000,458.000000 691.987854,458.029144 691.748413,457.673706 
	C651.671265,457.265717 611.833618,457.213196 571.532959,457.089905 
	C565.381470,457.066193 559.693054,457.113220 553.540039,457.099091 
	C542.049011,457.078979 531.022461,457.120026 519.532349,457.090271 
	C470.725494,457.402374 422.382355,457.785248 373.752686,457.896667 
	C370.980530,456.753662 368.494904,455.882172 366.009247,455.010651 
z"/>
<path fill="#716FFB" opacity="1.000000" stroke="none" 
	d="
M365.607666,455.006897 
	C368.494904,455.882172 370.980530,456.753662 373.518890,458.244446 
	C369.669708,458.594818 365.354950,457.119019 361.944092,458.285675 
	C352.096680,461.653870 342.157379,465.481567 337.132660,475.856018 
	C333.856049,482.621246 330.720612,489.152985 330.820404,497.244843 
	C331.232788,530.683472 330.996979,564.130127 330.989990,597.573853 
	C330.988708,603.759460 331.657959,609.604736 333.673187,615.725891 
	C338.251190,629.631531 352.050751,638.815674 365.035614,640.172180 
	C365.052734,641.266663 365.069855,642.361145 365.052032,643.719116 
	C359.318329,642.036072 353.398651,640.565491 347.966980,638.043762 
	C336.814972,632.866211 331.015442,623.285950 328.269714,611.028564 
	C328.675262,608.999390 328.952728,607.688721 328.953522,606.377930 
	C328.976379,568.396545 328.973846,530.415222 328.957825,492.433838 
	C328.957428,491.491058 328.758942,490.548309 328.652832,489.605560 
	C328.415436,489.620911 328.178070,489.636292 327.940674,489.651642 
	C327.940674,529.108765 327.940674,568.565857 327.940674,608.022949 
	C324.362701,607.326111 325.032288,604.477966 325.030579,602.084167 
	C325.005127,566.355347 324.988586,530.626465 325.075165,494.897888 
	C325.080109,492.847839 325.687469,490.664093 326.535858,488.776978 
	C328.944763,483.418610 331.463806,478.096130 334.233795,472.916931 
	C338.534119,464.876495 345.659668,460.442413 354.710632,458.138733 
	C355.476959,458.162842 355.753510,458.073120 356.030060,457.983398 
	C359.088745,456.990021 362.147430,455.996582 365.607666,455.006897 
z"/>
<path fill="#6764FA" opacity="1.000000" stroke="none" 
	d="
M973.969727,460.137573 
	C974.455933,459.792938 974.942200,459.448303 975.733032,459.055359 
	C979.017029,460.001770 982.444031,460.366913 984.892883,462.107910 
	C992.620789,467.601929 1000.477478,473.190735 1002.210632,483.638306 
	C1002.470825,485.206573 1003.369080,486.669067 1003.729675,488.893829 
	C1003.327942,490.580658 1003.030334,491.554077 1003.029602,492.527679 
	C1003.000916,530.625244 1002.988281,568.722839 1003.036865,606.820374 
	C1003.038635,608.230408 1003.670959,609.639587 1004.009399,611.049133 
	C1002.611389,614.998047 1001.824951,619.319397 999.692505,622.820984 
	C994.719788,630.986328 988.299316,637.827393 978.447754,640.983154 
	C977.248474,640.649231 976.420837,640.301575 975.316406,639.565308 
	C976.298767,638.623474 977.662170,638.230652 978.800354,637.491089 
	C986.682495,632.369751 993.439270,626.679199 996.992371,617.159912 
	C999.361084,610.813782 1001.003601,604.755249 1000.996826,598.090271 
	C1000.966919,568.771301 1000.994507,539.452332 1000.964172,510.133392 
	C1000.961731,507.753082 1000.151672,505.263123 1000.621094,503.012756 
	C1002.259460,495.158447 999.420227,488.142731 996.785095,481.177490 
	C992.733032,470.467163 984.108765,464.407837 973.969727,460.137573 
z"/>
<path fill="#8E8CFB" opacity="1.000000" stroke="none" 
	d="
M1004.069214,610.645630 
	C1003.670959,609.639587 1003.038635,608.230408 1003.036865,606.820374 
	C1002.988281,568.722839 1003.000916,530.625244 1003.029602,492.527679 
	C1003.030334,491.554077 1003.327942,490.580658 1003.748901,489.277039 
	C1008.277344,524.725769 1004.950745,560.642456 1005.871521,596.483704 
	C1005.988831,601.051941 1004.743164,605.655151 1004.069214,610.645630 
z"/>
<path fill="#8E8CFB" opacity="1.000000" stroke="none" 
	d="
M327.956299,608.389038 
	C327.940674,568.565857 327.940674,529.108765 327.940674,489.651642 
	C328.178070,489.636292 328.415436,489.620911 328.652832,489.605560 
	C328.758942,490.548309 328.957428,491.491058 328.957825,492.433838 
	C328.973846,530.415222 328.976379,568.396545 328.953522,606.377930 
	C328.952728,607.688721 328.675262,608.999390 328.272949,610.630127 
	C328.003418,610.218506 327.987701,609.486816 327.956299,608.389038 
z"/>
<path fill="#807FFC" opacity="1.000000" stroke="none" 
	d="
M248.996902,471.431763 
	C249.949570,468.564667 250.902191,466.134247 251.910034,463.339539 
	C252.411575,462.983826 252.857880,462.992401 253.638062,463.007141 
	C253.305008,468.035645 252.638123,473.058014 251.962585,478.529663 
	C246.827469,478.330780 249.855865,474.291260 248.996902,471.431763 
z"/>
<path fill="#ABA9FC" opacity="1.000000" stroke="none" 
	d="
M1081.048828,778.004883 
	C1079.335083,776.138184 1077.650879,773.853516 1075.969238,771.161987 
	C1077.463989,772.073181 1078.956421,773.391174 1080.713989,774.911560 
	C1081.012207,775.938171 1081.045166,776.762512 1081.048828,778.004883 
z"/>
<path fill="#7976FB" opacity="1.000000" stroke="none" 
	d="
M355.768799,457.983673 
	C355.753510,458.073120 355.476959,458.162842 355.092773,458.121307 
	C355.159271,457.988007 355.333405,457.985992 355.768799,457.983673 
z"/>
<path fill="#8E8CFB" opacity="1.000000" stroke="none" 
	d="
M1247.023193,271.584412 
	C1246.361572,271.233032 1245.135864,270.417450 1245.120117,269.579163 
	C1244.989502,262.631012 1245.058472,255.678268 1245.158325,248.728226 
	C1245.165771,248.222946 1245.889160,247.727997 1246.668457,247.109680 
	C1247.044800,255.030624 1247.032349,263.070160 1247.023193,271.584412 
z"/>
<path fill="#807FFC" opacity="1.000000" stroke="none" 
	d="
M1246.959473,683.260254 
	C1246.932007,683.731995 1246.964722,683.932129 1246.879883,684.038330 
	C1246.745605,684.206482 1246.532593,684.311768 1246.353027,684.443726 
	C1246.234863,682.771667 1246.116699,681.099609 1245.998413,679.427490 
	C1246.244263,679.412231 1246.490112,679.397034 1246.735840,679.381836 
	C1246.812988,680.570007 1246.890137,681.758240 1246.959473,683.260254 
z"/>
<path fill="#807FFC" opacity="1.000000" stroke="none" 
	d="
M1246.488770,689.481812 
	C1246.514648,689.469727 1246.462891,689.493896 1246.488770,689.481812 
z"/>
<path fill="#ABA9FC" opacity="1.000000" stroke="none" 
	d="
M52.781075,707.419067 
	C52.726013,706.283081 52.765553,705.493591 52.709301,704.318237 
	C52.627441,703.524780 52.641369,703.117188 52.665520,702.104980 
	C52.643467,701.299805 52.611195,701.099243 52.578926,700.898682 
	C52.697762,688.921143 52.816593,676.943542 52.964348,664.119141 
	C52.966831,662.505859 52.940392,661.739441 52.913948,660.972961 
	C52.931877,656.631775 52.949806,652.290588 52.989288,647.057007 
	C52.986206,644.436646 52.961575,642.708740 52.936939,640.980835 
	C52.947170,636.305481 52.957397,631.630066 52.980980,626.147705 
	C52.959629,624.882446 52.924927,624.424194 52.890224,623.965881 
	C52.861271,612.308228 52.832317,600.650574 52.745838,588.532715 
	C52.748547,586.314270 52.808781,584.556091 52.788940,582.362976 
	C52.763893,579.596252 52.818920,577.264404 52.831406,574.498047 
	C53.192482,564.697083 53.555683,555.328674 54.040108,545.966431 
	C54.119465,544.432800 54.732697,542.926819 55.452309,541.332520 
	C55.824051,597.124268 55.842663,652.991455 55.870003,709.300415 
	C54.877712,709.083252 53.876698,708.424438 52.781075,707.419067 
z"/>
<path fill="#ABA9FC" opacity="1.000000" stroke="none" 
	d="
M52.398125,383.040344 
	C52.326168,380.946289 52.960812,378.843323 52.961708,376.740112 
	C52.975136,345.243500 52.871609,313.746826 52.930660,282.250397 
	C52.934540,280.181152 54.030674,278.113922 55.070950,276.020172 
	C55.636578,299.553619 55.766579,323.112610 55.855938,346.671753 
	C55.896229,357.295593 55.860260,367.919769 55.847580,378.543793 
	C55.844997,380.706573 56.164574,383.122009 52.398125,383.040344 
z"/>
<path fill="#8E8CFB" opacity="1.000000" stroke="none" 
	d="
M10.021358,448.621552 
	C9.402088,449.505463 8.778634,450.016113 7.512183,451.053436 
	C7.512183,428.902039 7.512183,407.450500 7.512183,385.998962 
	C7.840232,385.938080 8.168281,385.877228 8.496330,385.816345 
	C8.676301,387.372803 9.008879,388.928894 9.012754,390.485779 
	C9.053786,406.967438 9.027808,423.449249 9.066542,439.930908 
	C9.070788,441.738373 9.363906,443.545197 9.778357,445.680786 
	C10.028172,446.755615 10.022673,447.501984 10.021358,448.621552 
z"/>
<path fill="#716FFB" opacity="1.000000" stroke="none" 
	d="
M128.458313,666.880737 
	C128.760559,667.477478 128.784210,667.917480 128.693863,668.795288 
	C128.462585,669.529480 128.530319,669.785034 128.783081,669.999756 
	C128.828476,670.211060 128.873856,670.422424 128.976227,671.237488 
	C129.023682,672.234131 129.014160,672.627075 129.004623,673.020081 
	C129.004623,673.020081 128.998138,673.002441 129.009918,673.004639 
	C128.269623,673.007324 127.517555,673.007751 126.390167,673.012695 
	C126.929680,670.985840 123.781296,667.556824 128.458313,666.880737 
z"/>
<path fill="#8E8CFB" opacity="1.000000" stroke="none" 
	d="
M59.465191,275.976196 
	C60.977760,272.867554 63.309498,273.447754 65.872345,275.621613 
	C63.948708,275.978394 61.923611,275.979553 59.465191,275.976196 
z"/>
<path fill="#716FFB" opacity="1.000000" stroke="none" 
	d="
M127.472008,621.042542 
	C127.160492,621.166016 126.852654,621.095337 126.544815,621.024658 
	C126.855103,620.965942 127.165390,620.907166 127.472008,621.042542 
z"/>
<path fill="#6764FA" opacity="1.000000" stroke="none" 
	d="
M1245.813477,371.330627 
	C1245.658447,371.630066 1245.464966,371.757477 1245.271606,371.884888 
	C1245.233521,371.734650 1245.121094,371.491180 1245.171143,371.451111 
	C1245.341675,371.314911 1245.569336,371.250488 1245.813477,371.330627 
z"/>
<path fill="#6764FA" opacity="1.000000" stroke="none" 
	d="
M1245.004639,386.997437 
	C1245.342651,387.500732 1245.674072,388.008240 1246.005493,388.515747 
	C1245.789673,388.630829 1245.573853,388.745941 1245.358032,388.861053 
	C1245.238159,388.420807 1245.118286,387.980560 1244.991943,387.277466 
	C1244.985352,387.014618 1244.998047,387.001678 1245.004639,386.997437 
z"/>
<path fill="#7976FB" opacity="1.000000" stroke="none" 
	d="
M52.601437,641.096436 
	C52.961575,642.708740 52.986206,644.436646 52.963543,646.594727 
	C50.025116,645.386414 50.620289,643.357971 52.601437,641.096436 
z"/>
<path fill="#7976FB" opacity="1.000000" stroke="none" 
	d="
M52.617027,661.054932 
	C52.940392,661.739441 52.966831,662.505859 52.940296,663.653320 
	C52.698250,663.068481 52.509178,662.102722 52.617027,661.054932 
z"/>
<path fill="#7976FB" opacity="1.000000" stroke="none" 
	d="
M52.632759,624.032166 
	C52.924927,624.424194 52.959629,624.882446 52.955132,625.684082 
	C52.735718,625.384399 52.555508,624.741394 52.632759,624.032166 
z"/>
<path fill="#7976FB" opacity="1.000000" stroke="none" 
	d="
M52.410614,700.957031 
	C52.611195,701.099243 52.643467,701.299805 52.623409,701.801270 
	C52.461487,701.739868 52.351891,701.377686 52.410614,700.957031 
z"/>
<path fill="#807FFC" opacity="1.000000" stroke="none" 
	d="
M129.179199,672.877075 
	C129.014160,672.627075 129.023682,672.234131 129.059326,671.550903 
	C129.174866,671.751831 129.264313,672.242920 129.179199,672.877075 
z"/>
<path fill="#6764FA" opacity="1.000000" stroke="none" 
	d="
M128.803116,669.754272 
	C128.530319,669.785034 128.462585,669.529480 128.675537,669.125977 
	C128.771194,669.018799 128.823151,669.508728 128.803116,669.754272 
z"/>
<path fill="#000000" opacity="1.000000" stroke="none" 
	d="
M973.548340,460.067627 
	C984.108765,464.407837 992.733032,470.467163 996.785095,481.177490 
	C999.420227,488.142731 1002.259460,495.158447 1000.621094,503.012756 
	C1000.151672,505.263123 1000.961731,507.753082 1000.964172,510.133392 
	C1000.994507,539.452332 1000.966919,568.771301 1000.996826,598.090271 
	C1001.003601,604.755249 999.361084,610.813782 996.992371,617.159912 
	C993.439270,626.679199 986.682495,632.369751 978.800354,637.491089 
	C977.662170,638.230652 976.298767,638.623474 974.968994,639.546875 
	C973.190430,640.287109 971.482300,640.657227 968.930176,641.027893 
	C946.083313,640.989807 924.080566,640.951233 901.824219,640.559814 
	C900.244446,640.138000 898.918335,640.008606 897.592163,640.008545 
	C735.574097,639.999512 573.556030,639.997498 411.537964,640.037781 
	C409.999298,640.038147 408.460754,640.608398 406.459625,640.948975 
	C394.030762,641.099731 382.064423,641.214111 370.098083,641.328491 
	C368.663330,640.892334 367.228577,640.456116 365.414734,640.096069 
	C352.050751,638.815674 338.251190,629.631531 333.673187,615.725891 
	C331.657959,609.604736 330.988708,603.759460 330.989990,597.573853 
	C330.996979,564.130127 331.232788,530.683472 330.820404,497.244843 
	C330.720612,489.152985 333.856049,482.621246 337.132660,475.856018 
	C342.157379,465.481567 352.096680,461.653870 361.944092,458.285675 
	C365.354950,457.119019 369.669708,458.594818 373.805389,458.515930 
	C422.382355,457.785248 470.725494,457.402374 519.787476,457.431793 
	C528.968201,457.896057 537.430664,458.018433 545.891846,457.959137 
	C548.597839,457.940186 551.300415,457.440186 554.004578,457.160278 
	C559.693054,457.113220 565.381470,457.066193 571.787964,457.431549 
	C574.335693,457.895935 576.165466,457.992523 577.995239,457.993408 
	C615.992798,458.011871 653.990295,458.019440 691.987854,458.029144 
	C691.987854,458.029144 692.000000,458.000000 692.211548,458.386780 
	C710.628174,458.844788 728.833191,458.926727 747.038330,458.944763 
	C747.713379,458.945435 748.389099,458.321991 749.064453,457.989380 
	C749.064453,457.989349 748.979492,457.979553 749.443848,457.995178 
	C755.709351,458.007233 761.513367,457.887817 767.311218,458.025665 
	C777.358948,458.264526 787.401184,458.815277 797.449219,458.933411 
	C802.966858,458.998260 808.491882,458.446625 814.013550,458.172974 
	C814.013550,458.172974 814.130493,458.123230 814.609680,458.063080 
	C828.186951,458.001953 841.285217,458.028656 854.382996,457.963013 
	C855.924622,457.955292 857.463745,457.440247 859.004028,457.160339 
	C888.973572,457.106171 918.945129,456.841461 948.911194,457.137268 
	C956.991760,457.217010 965.055542,458.997772 973.548340,460.067627 
z"/>
<path fill="#0000FF" opacity="1.000000" stroke="none" 
	d="
M406.922150,640.912598 
	C408.460754,640.608398 409.999298,640.038147 411.537964,640.037781 
	C573.556030,639.997498 735.574097,639.999512 897.592163,640.008545 
	C898.918335,640.008606 900.244446,640.138000 901.785889,640.602234 
	C902.001099,640.997437 901.923462,641.081238 901.460815,641.044678 
	C883.371826,641.045837 865.745483,641.083496 848.119080,641.121155 
	C847.287781,641.083069 846.456482,641.011658 845.625183,641.011719 
	C731.362183,641.015869 617.099182,641.025208 501.903625,641.023193 
	C489.684692,641.048706 478.398224,641.085388 467.111786,641.122070 
	C456.686523,641.093201 446.261261,641.064331 434.903503,641.023804 
	C425.006134,641.035217 416.041260,641.058289 407.037598,641.039368 
	C406.998810,640.997375 406.922150,640.912598 406.922150,640.912598 
z"/>
<path fill="#0000FF" opacity="1.000000" stroke="none" 
	d="
M902.039429,640.955017 
	C924.080566,640.951233 946.083313,640.989807 968.551147,641.098267 
	C967.282410,641.450684 965.549255,641.974243 963.814575,641.978943 
	C943.519897,642.034485 923.225037,642.012085 902.460571,641.774170 
	C901.990967,641.538147 901.923462,641.081238 901.923462,641.081238 
	C901.923462,641.081238 902.001099,640.997437 902.039429,640.955017 
z"/>
<path fill="#FFFFFF" opacity="1.000000" stroke="none" 
	d="
M901.460815,641.044678 
	C901.923462,641.081238 901.990967,641.538147 901.991333,641.769104 
	C884.207092,641.922485 866.422424,641.844971 848.378418,641.444336 
	C865.745483,641.083496 883.371826,641.045837 901.460815,641.044678 
z"/>
<path fill="#0000FF" opacity="1.000000" stroke="none" 
	d="
M370.416260,641.584106 
	C382.064423,641.214111 394.030762,641.099731 406.459625,640.948975 
	C406.922150,640.912598 406.998810,640.997375 407.003479,641.267761 
	C407.008148,641.538147 407.001617,642.000000 407.001617,642.000000 
	C394.912567,641.946533 382.823486,641.893127 370.416260,641.584106 
z"/>
<path fill="#FFFFFF" opacity="1.000000" stroke="none" 
	d="
M467.372864,641.444580 
	C478.398224,641.085388 489.684692,641.048706 501.429779,641.066895 
	C499.855927,641.414551 497.823914,641.953918 495.790863,641.957825 
	C486.405365,641.975708 477.019623,641.844666 467.372864,641.444580 
z"/>
<path fill="#FFFFFF" opacity="1.000000" stroke="none" 
	d="
M407.470154,641.999878 
	C407.001617,642.000000 407.008148,641.538147 407.042297,641.309753 
	C416.041260,641.058289 425.006134,641.035217 434.429565,641.067139 
	C430.368683,641.414795 425.852905,641.820007 421.328674,641.968140 
	C416.869812,642.114136 412.402374,641.999817 407.470154,641.999878 
z"/>
<path fill="#0000FF" opacity="1.000000" stroke="none" 
	d="
M691.748413,457.673706 
	C653.990295,458.019440 615.992798,458.011871 577.995239,457.993408 
	C576.165466,457.992523 574.335693,457.895935 572.250916,457.502319 
	C611.833618,457.213196 651.671265,457.265717 691.748413,457.673706 
z"/>
<path fill="#0000FF" opacity="1.000000" stroke="none" 
	d="
M813.546509,458.170349 
	C808.491882,458.446625 802.966858,458.998260 797.449219,458.933411 
	C787.401184,458.815277 777.358948,458.264526 767.311218,458.025665 
	C761.513367,457.887817 755.709351,458.007233 749.437256,458.037476 
	C750.649902,457.707428 752.331299,457.053711 754.017273,457.041687 
	C766.295471,456.953918 778.576660,456.858612 790.852661,457.046661 
	C798.265625,457.160187 805.670837,457.777069 813.546509,458.170349 
z"/>
<path fill="#0000FF" opacity="1.000000" stroke="none" 
	d="
M748.591675,458.004456 
	C748.389099,458.321991 747.713379,458.945435 747.038330,458.944763 
	C728.833191,458.926727 710.628174,458.844788 692.202026,458.399323 
	C710.693604,458.023224 729.406250,458.021362 748.591675,458.004456 
z"/>
<path fill="#0000FF" opacity="1.000000" stroke="none" 
	d="
M858.539551,457.099182 
	C857.463745,457.440247 855.924622,457.955292 854.382996,457.963013 
	C841.285217,458.028656 828.186951,458.001953 814.635498,458.004944 
	C815.529663,457.669403 816.875977,457.044678 818.225037,457.038696 
	C831.508118,456.979675 844.791626,457.023438 858.539551,457.099182 
z"/>
<path fill="#0000FF" opacity="1.000000" stroke="none" 
	d="
M553.540039,457.099121 
	C551.300415,457.440186 548.597839,457.940186 545.891846,457.959137 
	C537.430664,458.018433 528.968201,457.896057 520.251099,457.502594 
	C531.022461,457.120026 542.049011,457.078979 553.540039,457.099121 
z"/>
</svg>